<?xml version="1.0" encoding="UTF-8" standalone="no"?>
<svg width="256px" height="256px" viewBox="0 0 256 256" version="1.1" xmlns="http://www.w3.org/2000/svg" xmlns:xlink="http://www.w3.org/1999/xlink">
    <!-- Generator: Sketch 40.1 (33804) - http://www.bohemiancoding.com/sketch -->
    <title>icon</title>
    <desc>Created with Sketch.</desc>
    <defs>
        <radialGradient cx="100%" cy="4.68441015%" fx="100%" fy="4.68441015%" r="224.389186%" id="radialGradient-1">
            <stop stop-color="#27A381" offset="0%"></stop>
            <stop stop-color="#356BB9" offset="100%"></stop>
        </radialGradient>
    </defs>
    <g id="Page-1" stroke="none" stroke-width="1" fill="none" fill-rule="evenodd">
        <g id="icon">
            <rect id="Rectangle" fill="#122E46" x="0" y="0" width="256" height="256"></rect>
            <path d="M111.921517,168.385492 C146.004687,139.00596 181.385535,85.0139008 185.227684,32.8190274 C187.708542,80.3743565 138.803838,156.977821 108.829987,180.927557 L133.511341,174.924191 C164.630203,143.339601 197.034023,97.2373156 188.090212,23.1320668 L188.344659,22.6987028 L188.052045,22.8261628 L188.013878,22.5202588 L187.772154,22.9408768 C118.867919,52.7027887 95.5987456,103.699538 83.6779059,146.130975 L90.6879194,170.424852 C96.5783663,132.645706 138.65117,52.4606147 181.296479,30.5884773 C137.78605,60.1846912 108.57554,117.490711 100.026123,161.515398 C102.621481,163.185124 108.562818,166.613798 111.921517,168.385492 L111.921517,168.385492 Z M163.155239,57.8193339 C164.391411,55.6585471 167.150947,54.9130124 169.311126,56.1513581 C171.471306,57.3897038 172.208014,60.1443912 170.971842,62.305178 C169.73567,64.4659649 166.976134,65.1988634 164.815955,63.9605177 C162.655775,62.722172 161.919067,59.9674846 163.155239,57.8193339 L163.155239,57.8193339 Z M148.643528,76.8863488 C150.878015,73.0760997 155.710744,71.6987461 159.452212,73.8098301 C163.193679,75.9209141 164.427844,80.7094704 162.193357,84.5197196 C159.958869,88.3299687 155.113149,89.7073223 151.371681,87.5962383 C147.630214,85.4851543 146.422031,80.6837255 148.643528,76.8863488 Z M101.130647,174.170848 C101.130647,174.170848 80.3151402,183.756894 74.104989,191.092635 C80.0595785,188.448208 85.1963702,188.435495 85.1963702,188.435495 C85.1963702,188.435495 71.3321437,199.763303 66.5786947,207.302461 C71.5621493,202.687428 80.0851346,200.818531 80.0851346,200.818531 C80.0851346,200.818531 72.0093824,214.053377 66.3998014,233.327178 L66.6681413,233.479741 C80.711261,219.087958 88.2758896,205.547986 88.2758896,205.547986 C88.2758896,205.547986 90.8698417,213.849959 89.3109148,220.448312 C93.5404623,212.604028 96.5688693,194.995707 96.5688693,194.995707 C96.5688693,194.995707 99.111709,199.432749 99.7633916,205.903966 C103.098473,196.890031 101.130647,174.170848 101.130647,174.170848 Z" id="Combined-Shape" fill="url(#radialGradient-1)" transform="translate(128.000000, 128.000000) rotate(16.000000) translate(-128.000000, -128.000000) "></path>
        </g>
    </g>
</svg>