<svg version="1.1" data-id="separator-bottom-15" xmlns="http://www.w3.org/2000/svg" xmlns:xlink="http://www.w3.org/1999/xlink"
	 viewBox="44 0 1806 80" enable-background="new 0 0 1920 80" xml:space="preserve">
<path fill="@color1" d="M1921,80V40h-1.1c-0.6,7-7.5,12-15.9,12s-15.3-5-15.9-12h-0.1c-0.6,7-7.5,12-15.9,12s-15.3-5-15.9-12h-0.1
	c-0.6,7-7.5,12-15.9,12s-15.3-5-15.9-12h-0.1c-0.6,7-7.5,12-15.9,12s-15.3-5-15.9-12h-0.1c-0.6,7-7.5,12-15.9,12s-15.3-5-15.9-12
	h-0.1c-0.6,7-7.5,12-15.9,12s-15.3-5-15.9-12h-0.1c-0.6,7-7.5,12-15.9,12s-15.3-5-15.9-12h-0.1c-0.6,7-7.5,12-15.9,12
	s-15.3-5-15.9-12h-0.1c-0.6,7-7.5,12-15.9,12s-15.3-5-15.9-12h-0.1c-0.6,7-7.5,12-15.9,12s-15.3-5-15.9-12h-0.1
	c-0.6,7-7.5,12-15.9,12s-15.3-5-15.9-12h-0.1c-0.6,7-7.5,12-15.9,12s-15.3-5-15.9-12h-0.1c-0.6,7-7.5,12-15.9,12s-15.3-5-15.9-12
	h-0.1c-0.6,7-7.5,12-15.9,12s-15.3-5-15.9-12h-0.1c-0.6,7-7.5,12-15.9,12s-15.3-5-15.9-12h-0.1c-0.6,7-7.5,12-15.9,12
	s-15.3-5-15.9-12h-0.1c-0.6,7-7.5,12-15.9,12s-15.3-5-15.9-12h-0.1c-0.6,7-7.5,12-15.9,12s-15.3-5-15.9-12h-0.1
	c-0.6,7-7.5,12-15.9,12s-15.3-5-15.9-12h-0.1c-0.6,7-7.5,12-15.9,12s-15.3-5-15.9-12h-0.1c-0.6,7-7.5,12-15.9,12s-15.3-5-15.9-12
	h-0.1c-0.6,7-7.5,12-15.9,12s-15.3-5-15.9-12h-0.1c-0.6,7-7.5,12-15.9,12s-15.3-5-15.9-12h-0.1c-0.6,7-7.5,12-15.9,12
	s-15.3-5-15.9-12h-0.1c-0.6,7-7.5,12-15.9,12s-15.3-5-15.9-12h-0.1c-0.6,7-7.5,12-15.9,12s-15.3-5-15.9-12h-0.1
	c-0.6,7-7.5,12-15.9,12s-15.3-5-15.9-12h-0.1c-0.6,7-7.5,12-15.9,12s-15.3-5-15.9-12h-0.1c-0.6,7-7.5,12-15.9,12s-15.3-5-15.9-12
	h-0.1c-0.6,7-7.5,12-15.9,12s-15.3-5-15.9-12h-0.1c-0.6,7-7.5,12-15.9,12s-15.3-5-15.9-12h-0.1c-0.6,7-7.5,12-15.9,12
	s-15.3-5-15.9-12h-0.1c-0.6,7-7.5,12-15.9,12s-15.3-5-15.9-12h-0.1c-0.6,7-7.5,12-15.9,12s-15.3-5-15.9-12h-0.1
	c-0.6,7-7.5,12-15.9,12s-15.3-5-15.9-12h-0.1c-0.6,7-7.5,12-15.9,12s-15.3-5-15.9-12h-0.1c-0.6,7-7.5,12-15.9,12s-15.3-5-15.9-12
	h-0.1c-0.6,7-7.5,12-15.9,12s-15.3-5-15.9-12h-0.1c-0.6,7-7.5,12-15.9,12s-15.3-5-15.9-12h-0.1c-0.6,7-7.5,12-15.9,12
	s-15.3-5-15.9-12h-0.1c-0.6,7-7.5,12-15.9,12s-15.3-5-15.9-12h-0.1c-0.6,7-7.5,12-15.9,12s-15.3-5-15.9-12h-0.1
	c-0.6,7-7.5,12-15.9,12s-15.3-5-15.9-12h-0.1c-0.6,7-7.5,12-15.9,12s-15.3-5-15.9-12h-0.1c-0.6,7-7.5,12-15.9,12s-15.3-5-15.9-12
	h-0.1c-0.6,7-7.5,12-15.9,12s-15.3-5-15.9-12h-0.1c-0.6,7-7.5,12-15.9,12s-15.3-5-15.9-12h-0.1c-0.6,7-7.5,12-15.9,12
	s-15.3-5-15.9-12h-0.1c-0.6,7-7.5,12-15.9,12s-15.3-5-15.9-12h-0.1c-0.6,7-7.5,12-15.9,12s-15.3-5-15.9-12h-0.1
	c-0.6,7-7.5,12-15.9,12s-15.3-5-15.9-12h-0.1c-0.6,7-7.5,12-15.9,12s-15.3-5-15.9-12h-0.1c-0.6,7-7.5,12-15.9,12s-15.3-5-15.9-12
	h-0.1c-0.6,7-7.5,12-15.9,12s-15.3-5-15.9-12h-0.1c-0.6,7-7.5,12-15.9,12s-15.3-5-15.9-12h-0.1c-0.6,7-7.5,12-15.9,12
	s-15.3-5-15.9-12h-0.1c-0.6,7-7.5,12-15.9,12S96.6,47,96,40h-0.1c-0.6,7-7.5,12-15.9,12S64.6,47,64,40h-0.1c-0.6,7-7.5,12-15.9,12
	S32.6,47,32,40h-0.1c-0.6,7-7.5,12-15.9,12S0.6,47,0,40h1v40H1921z"/>
</svg>
