<svg version="1.1" xmlns="http://www.w3.org/2000/svg" xmlns:xlink="http://www.w3.org/1999/xlink" x="0px" y="0px"
	 viewBox="0 0 10 10" style="enable-background:new 0 0 10 10;" width="10" height="10" xml:space="preserve">
<rect y="0" class="st0" width="10" height="10" fill="@color1" fill-opacity="0.4"/>
<rect y="0" width="1" height="1" fill="@color1"/>
<rect x="9" y="9" width="1" height="1" fill="@color1"/>
<polygon points="9,0 8,0 8,1 7,1 7,2 6,2 6,3 5,3 5,4 4,4 4,5 3,5 3,6 2,6 2,7 1,7 1,8 0,8 0,9 0,10 1,10 2,10 2,9 3,9 3,8 4,8 4,7 
	5,7 5,6 6,6 6,5 7,5 7,4 8,4 8,3 9,3 9,2 10,2 10,1 10,0 " fill="@color1"/>
</svg>
