<svg version="1.1" xmlns="http://www.w3.org/2000/svg" xmlns:xlink="http://www.w3.org/1999/xlink" x="0px" y="0px"
	 width="8" height="9" enable-background="new 0 0 8 9" xml:space="preserve">
<rect fill="@color1" width="1" height="1"/>
<rect x="4" fill="@color1" width="1" height="1"/>
<rect x="4" y="8" fill="@color1" width="1" height="1"/>
<rect x="5" y="7" fill="@color1" width="1" height="1"/>
<rect x="6" y="6" fill="@color1" width="1" height="1"/>
<rect x="7" y="5" fill="@color1" width="1" height="1"/>
<rect x="3" y="1" fill="@color1" width="1" height="1"/>
<rect x="7" y="1" fill="@color1" width="1" height="1"/>
<rect x="6" y="2" fill="@color1" width="1" height="1"/>
<rect x="5" y="3" fill="@color1" width="1" height="1"/>
<rect x="4" y="4" fill="@color1" width="1" height="1"/>
<rect x="3" y="5" fill="@color1" width="1" height="1"/>
<rect x="2" y="6" fill="@color1" width="1" height="1"/>
<rect x="1" y="7" fill="@color1" width="1" height="1"/>
<rect y="8" fill="@color1" width="1" height="1"/>
<rect x="2" y="2" fill="@color1" width="1" height="1"/>
<rect x="1" y="3" fill="@color1" width="1" height="1"/>
<rect y="4" fill="@color1" width="1" height="1"/>
</svg>
