<?xml version="1.0" standalone="no"?>
<!DOCTYPE svg PUBLIC "-//W3C//DTD SVG 1.1//EN" "http://www.w3.org/Graphics/SVG/1.1/DTD/svg11.dtd" >
<svg xmlns="http://www.w3.org/2000/svg">
<metadata>Generated by IcoMoon</metadata>
<defs>
<font id="icomoon" horiz-adv-x="512">
<font-face units-per-em="512" ascent="480" descent="-32" />
<missing-glyph horiz-adv-x="512" />
<glyph unicode="&#x20;" d="" horiz-adv-x="256" />
<glyph unicode="&#xe600;" d="M255.992 391.065c-92.339 0-167.466-75.127-167.466-167.466s75.127-167.466 167.466-167.466c92.347 0 167.484 75.127 167.484 167.466s-75.136 167.466-167.483 167.466zM255.992 81.733c-78.225 0-141.867 63.642-141.867 141.867s63.642 141.866 141.867 141.866c78.234 0 141.883-63.641 141.883-141.866s-63.65-141.866-141.883-141.866zM255.992 401.425c7.074 0 12.8 5.734 12.8 12.8v52.975c0 7.065-5.726 12.8-12.8 12.8-7.065 0-12.791-5.735-12.791-12.8v-52.975c0-7.066 5.726-12.8 12.791-12.8zM255.992 46.584c-7.066 0-12.792-5.735-12.792-12.8v-52.983c0-7.065 5.726-12.8 12.791-12.8 7.074 0 12.8 5.735 12.8 12.8v52.983c0 7.065-5.726 12.8-12.8 12.8zM78.575 223.599c0 7.065-5.734 12.8-12.8 12.8h-52.975c-7.066 0-12.8-5.734-12.8-12.8s5.734-12.8 12.8-12.8h52.975c7.066 0 12.8 5.735 12.8 12.8zM499.2 236.399h-52.975c-7.065 0-12.8-5.734-12.8-12.8s5.735-12.8 12.8-12.8h52.975c7.074 0 12.8 5.735 12.8 12.8s-5.726 12.8-12.8 12.8zM112.435 349.056c2.501-2.5 5.777-3.746 9.054-3.746s6.554 1.246 9.054 3.746c5 5 5 13.098 0 18.099l-37.462 37.462c-5.001 5-13.107 5-18.099 0-5.001-5.001-5.001-13.099 0-18.099l37.453-37.462zM399.557 98.142c-5 5-13.099 5-18.099 0-5-4.992-5-13.099 0-18.099l37.462-37.462c2.5-2.5 5.777-3.746 9.054-3.746s6.553 1.246 9.054 3.746c5 5 5 13.099 0 18.099l-37.47 37.462zM112.725 97.851l-37.462-37.453c-5.001-5-5.001-13.107 0-18.099 2.501-2.5 5.777-3.746 9.054-3.746s6.553 1.246 9.054 3.746l37.462 37.453c5 5 5 13.107 0 18.099-5.001 5-13.115 5-18.108 0zM390.793 345.029c3.286 0 6.553 1.246 9.054 3.746l37.47 37.462c5 5.001 5 13.099 0 18.099s-13.099 5-18.099 0l-37.47-37.462c-5-5-5-13.107 0-18.108 2.491-2.492 5.777-3.738 9.046-3.738z" />
<glyph unicode="&#xe601;" d="M305.297 138.555v295.466c0 25.353-20.634 45.978-45.978 45.978h-6.631c-25.352 0-45.986-20.625-45.986-45.978v-295.466c-26.778-16.862-43.111-46.123-43.111-78.149 0-50.952 41.455-92.407 92.407-92.407s92.408 41.455 92.408 92.408c0 32.026-16.333 61.295-43.111 78.149zM256-6.358c-36.804 0-66.765 29.952-66.765 66.765 0 25.071 13.867 47.813 36.173 59.341 4.258 2.202 6.929 6.587 6.929 11.384v302.89c0 11.213 9.122 20.344 20.344 20.344h6.631c11.213 0 20.344-9.122 20.344-20.344v-302.89c0-4.796 2.671-9.182 6.929-11.384 22.306-11.537 36.173-34.279 36.173-59.341 0.009-36.813-29.944-66.765-66.757-66.765zM262.417 97.169v246.212c0 3.542-2.875 6.409-6.417 6.409-3.533 0-6.409-2.867-6.409-6.409v-246.221c-16.939-3.038-29.841-17.851-29.841-35.653 0-19.993 16.256-36.258 36.249-36.258s36.258 16.264 36.258 36.258c0 17.809-12.911 32.615-29.841 35.661zM256 38.084c-12.919 0-23.433 10.505-23.433 23.433 0 12.92 10.513 23.433 23.433 23.433 12.928 0 23.433-10.513 23.433-23.433 0-12.928-10.505-23.433-23.433-23.433z" />
<glyph unicode="&#xe602;" d="M347.384 232.73c-7.748 54.486-54.281 95.675-110.524 95.675-43.213 0-82.5-25.199-100.847-63.675-2.167 0.17-4.327 0.247-6.451 0.247-48.939 0-89.002-38.75-91.119-87.185-24.209-17.288-38.443-44.706-38.443-74.76 0-50.782 41.319-92.101 92.1-92.101h243.294c1.144 0 2.253 0.154 3.311 0.435 57.37 4.966 101.947 53.351 101.947 111.232 0 54.954-40.141 101.299-93.269 110.131zM334.541 37.418c-0.529-0.034-1.050-0.103-1.57-0.197h-240.87c-36.292 0-65.817 29.534-65.817 65.817 0 23.296 12.007 44.399 32.128 56.448 4.113 2.449 6.562 6.963 6.383 11.767-0.025 0.546-0.059 1.084-0.094 1.613-0.025 0.298-0.059 0.598-0.059 0.913 0 35.781 29.124 64.913 64.913 64.913 3.994 0 7.995-0.401 12.228-1.203 6.34-1.22 12.603 2.363 14.805 8.414 12.228 33.613 44.484 56.218 80.264 56.218 45.918 0 83.379-35.934 85.29-81.784 0.273-6.716 5.589-12.135 12.296-12.57 44.808-2.833 79.914-40.252 79.914-85.18 0.017-44.877-35.046-82.304-79.813-85.171zM418.731 341.385c-7.74 54.486-54.289 95.675-110.524 95.675-43.213 0-82.5-25.199-100.839-63.675-2.176 0.162-4.327 0.239-6.459 0.239-50.287 0-91.204-40.909-91.204-91.196 0-0.93 0.059-1.869 0.12-2.782l0.051-0.802c0.299-7.065 6.127-12.603 13.124-12.603 0.179 0 0.376 0.017 0.563 0.017 7.254 0.298 12.886 6.434 12.578 13.688l-0.085 1.502c-0.025 0.333-0.060 0.649-0.060 0.981 0 35.789 29.115 64.905 64.904 64.905 3.959 0 8.064-0.401 12.22-1.195 6.306-1.221 12.613 2.346 14.814 8.414 12.228 33.622 44.485 56.209 80.264 56.209 45.918 0 83.379-35.908 85.299-81.767 0.273-6.724 5.581-12.143 12.296-12.569 44.808-2.833 79.906-40.252 79.906-85.189 0-28.647-14.267-55.236-38.161-71.134-6.041-4.019-7.68-12.185-3.67-18.219 2.534-3.798 6.707-5.871 10.957-5.871 2.5 0 5.026 0.717 7.271 2.202 31.232 20.787 49.886 55.552 49.886 93.013 0.017 54.972-40.123 101.333-93.252 110.157z" />
<glyph unicode="&#xe603;" d="M403.234 296.534c-8.559 63.462-62.584 111.557-127.915 111.557-50.279 0-95.931-29.483-116.992-74.419-2.799 0.231-5.572 0.35-8.311 0.35-56.678 0-103.023-45.030-105.139-101.197-28.245-19.934-44.877-51.737-44.877-86.631 0-58.607 47.684-106.283 106.274-106.283h284.091c1.272 0 2.517 0.179 3.695 0.512 66.355 5.7 117.939 61.662 117.939 128.614 0 63.863-46.873 117.683-108.766 127.496zM389.47 68.293c-0.632-0.043-1.246-0.128-1.851-0.239h-281.344c-43.077 0-78.131 35.046-78.131 78.139 0 27.665 14.259 52.719 38.127 67.003 4.438 2.654 7.057 7.518 6.835 12.672l-0.094 1.681c-0.034 0.418-0.069 0.827-0.069 1.246 0 42.505 34.577 77.082 77.073 77.082 4.694 0 9.575-0.478 14.498-1.417 6.801-1.288 13.5 2.526 15.863 9.011 14.447 39.766 52.6 66.483 94.934 66.483 54.298 0 98.611-42.479 100.864-96.709 0.29-7.202 5.982-13.005 13.167-13.457 53-3.345 94.515-47.599 94.515-100.753 0.009-53.094-41.455-97.339-94.387-100.745z" />
<glyph unicode="&#xe604;" d="M403.080 369.263c-8.977 63.061-62.848 110.737-127.949 110.737-50.014 0-95.48-29.159-116.753-73.694-2.483 0.179-4.966 0.281-7.433 0.281-56.653 0-103.031-44.851-105.481-100.915-28.015-20.028-44.502-51.763-44.502-86.562 0-58.803 47.846-106.641 106.649-106.641h281.549c1.331 0 2.654 0.179 3.882 0.521 66.398 5.769 117.982 61.764 117.982 128.768 0.009 63.607-46.447 117.273-107.947 127.505zM388.182 143.24c-0.632-0.043-1.263-0.128-1.886-0.239h-278.682c-41.967 0-76.118 34.151-76.118 76.118 0 26.957 13.883 51.362 37.154 65.272 4.796 2.875 7.646 8.149 7.415 13.747l-0.12 1.775c-0.017 0.359-0.051 0.717-0.051 1.075 0 41.395 33.664 75.059 75.051 75.059 4.583 0 9.352-0.461 14.131-1.382 7.381-1.408 14.651 2.739 17.22 9.779 14.131 38.887 51.43 65.016 92.834 65.016 53.12 0 96.452-41.541 98.654-94.575 0.315-7.808 6.486-14.114 14.285-14.601 51.832-3.268 92.433-46.549 92.433-98.534 0-51.917-40.55-95.181-92.322-98.509zM359.714 88.2l-107.178-107.17c-2.987-2.986-2.987-7.817 0-10.803 1.502-1.485 3.447-2.227 5.401-2.227s3.917 0.743 5.401 2.236l107.17 107.178c2.986 2.986 2.986 7.817 0 10.794-2.995 2.978-7.825 2.978-10.794-0.009zM152.251 88.2c-2.987 2.986-7.816 2.986-10.786 0l-107.178-107.17c-2.97-2.986-2.97-7.817 0-10.803 1.493-1.485 3.447-2.227 5.393-2.227s3.917 0.743 5.401 2.236l107.17 107.178c2.978 2.978 2.978 7.808 0 10.786zM205.833 88.2c-2.987 2.986-7.799 2.986-10.786 0l-75.614-75.606c-2.987-2.986-2.987-7.817 0-10.803 1.485-1.493 3.43-2.236 5.401-2.236 1.954 0 3.899 0.743 5.385 2.236l75.614 75.614c2.987 2.986 2.987 7.817 0 10.794zM259.951 88.2c-2.986 2.986-7.816 2.986-10.803 0l-107.161-107.17c-2.987-2.986-2.987-7.817 0-10.803 1.476-1.485 3.43-2.227 5.385-2.227 1.963 0 3.917 0.743 5.401 2.236l107.187 107.178c2.969 2.978 2.969 7.808-0.009 10.786zM313.531 88.2c-2.986 2.986-7.817 2.986-10.803 0l-75.614-75.606c-2.987-2.986-2.987-7.817 0-10.803 1.485-1.493 3.447-2.236 5.401-2.236s3.899 0.743 5.401 2.236l75.614 75.614c2.969 2.986 2.969 7.817 0 10.794z" />
<glyph unicode="&#xe605;" d="M268.868 447.249v19.882c0 7.108-5.76 12.868-12.869 12.868s-12.869-5.76-12.869-12.868v-19.882c-114.117-6.682-204.911-101.606-204.911-217.37 0-7.108 5.76-12.868 12.868-12.868h3.721c6.92 0 12.603 5.478 12.859 12.391 0.751 20.215 17.169 36.054 37.368 36.054 20.207 0 36.625-15.829 37.376-36.053 0.248-6.921 6.127-12.39 13.048-12.39s12.603 5.478 12.859 12.391c0.743 20.215 17.16 36.054 37.368 36.054 20.173 0 36.566-15.786 37.359-35.959v-207.736c0-0.521 0.094-0.99 0.154-1.493-0.008-0.179-0.051-0.35-0.051-0.529 0-28.527 23.211-51.729 51.738-51.729s51.738 23.211 51.738 51.729c0 7.108-5.76 12.868-12.868 12.868s-12.868-5.76-12.868-12.868c0-14.336-11.665-26.001-26.010-26.001s-26.010 11.665-26.010 26.001c0 0.521-0.094 0.998-0.154 1.493 0.009 0.179 0.051 0.35 0.051 0.529v206.293c0.068 0.452 0.171 0.887 0.179 1.357 0.751 20.215 17.169 36.054 37.376 36.054 20.199 0 36.617-15.829 37.368-36.053 0.256-6.921 6.127-12.39 13.039-12.39 6.929 0 12.603 5.478 12.86 12.391 0.751 20.215 17.169 36.054 37.376 36.054s36.625-15.829 37.376-36.053c0.256-6.921 5.939-12.39 12.86-12.39h3.721c7.108 0 12.868 5.76 12.868 12.869-0.009 115.754-90.803 210.679-204.92 217.361zM406.963 291.192c-20.557 0-38.801-9.72-50.321-24.901-11.52 15.181-29.755 24.901-50.313 24.901-20.565 0-38.81-9.72-50.321-24.909-11.529 15.189-29.756 24.909-50.321 24.909s-38.809-9.72-50.321-24.901c-11.52 15.181-29.755 24.901-50.321 24.901-12.57 0-24.269-3.627-34.090-9.916 22.502 81.016 96.947 140.655 185.046 140.655s162.535-59.639 185.071-140.655c-9.839 6.289-21.529 9.916-34.108 9.916z" />
<glyph unicode="&#xe606;" d="M422.494 224.887c-7.416 52.275-52.070 91.81-106.026 91.81-8.534 0-16.879-1.075-24.943-3.021-22.366 36.377-61.662 58.598-104.909 58.598-67.977 0-123.264-55.287-123.264-123.255 0-36.906 16.307-71.288 44.237-94.592-11.802-15.173-18.389-33.962-18.389-53.982 0-48.709 39.646-88.346 88.354-88.346h233.464c1.101 0 2.176 0.145 3.192 0.426 55.031 4.753 97.792 51.166 97.792 106.692 0 52.728-38.519 97.203-89.506 105.668zM88.507 249.011c0 54.093 44.007 98.099 98.108 98.099 32.726 0 62.618-15.975 80.793-42.428-20.523-10.615-37.504-27.69-47.702-49.101-49.784 3.687-91.512-34.918-93.619-83.405-0.077-0.060-0.145-0.12-0.213-0.171-23.535 18.551-37.367 46.695-37.367 77.005zM410.206 37.445c-0.521-0.034-1.024-0.103-1.527-0.188h-231.125c-34.85 0-63.198 28.339-63.198 63.181 0 17.834 7.33 34.313 20.088 46.114 0.281 0.239 0.537 0.503 0.802 0.76 3.030 2.714 6.357 5.171 9.958 7.322 3.959 2.363 6.306 6.707 6.11 11.315l-0.085 1.442c-0.017 0.307-0.051 0.623-0.051 0.938 0 34.363 27.955 62.327 62.336 62.327 3.806 0 7.749-0.384 11.716-1.143 6.067-1.161 12.083 2.253 14.191 8.055 11.725 32.273 42.701 53.957 77.056 53.957 44.083 0 80.051-34.483 81.886-78.498 0.264-6.434 5.351-11.623 11.776-12.032 43.017-2.714 76.714-38.63 76.714-81.784-0.009-43.085-33.673-79.010-76.647-81.767zM186.615 372.839c6.938 0 12.578 5.632 12.578 12.587v37.905c0 6.938-5.632 12.578-12.578 12.578s-12.587-5.632-12.587-12.578v-37.905c0.008-6.946 5.641-12.587 12.587-12.587zM63.070 249.011c0 6.946-5.623 12.578-12.578 12.578h-37.913c-6.946-0.008-12.578-5.632-12.578-12.578s5.632-12.578 12.578-12.578h37.913c6.946 0 12.578 5.624 12.578 12.578zM81.468 336.367c2.449-2.449 5.674-3.686 8.892-3.686s6.434 1.238 8.892 3.686c4.915 4.915 4.915 12.877 0 17.792l-26.803 26.803c-4.906 4.915-12.877 4.915-17.784 0.009-4.915-4.915-4.915-12.886 0-17.792l26.803-26.812zM99.456 161.442c-4.906 4.906-12.877 4.906-17.792 0l-26.811-26.812c-4.907-4.906-4.907-12.877 0-17.784 2.449-2.457 5.675-3.687 8.892-3.687 3.226 0 6.443 1.229 8.892 3.687l26.82 26.803c4.906 4.906 4.906 12.877 0 17.792zM283.077 332.485c3.217 0 6.442 1.229 8.892 3.686l26.803 26.811c4.915 4.907 4.915 12.877 0 17.784-4.906 4.907-12.877 4.907-17.784 0l-26.803-26.811c-4.915-4.906-4.915-12.877 0-17.784 2.457-2.466 5.675-3.686 8.892-3.686z" />
<glyph unicode="&#xe607;" d="M256 480c-141.159 0-256-114.833-256-256 0-141.159 114.841-256 256-256 141.167 0 256 114.841 256 256 0 141.167-114.833 256-256 256zM256-3.439c-125.406 0-227.439 102.033-227.439 227.439 0 125.414 102.033 227.447 227.439 227.447 125.414 0 227.447-102.033 227.447-227.447 0-125.406-102.033-227.439-227.447-227.439z" />
<glyph unicode="&#xe608;" d="M404.634 453.051c-1.519 2.313-3.67 4.13-6.195 5.248-32.657 14.404-67.37 21.7-103.159 21.7-141.159 0-255.992-114.833-255.992-256 0-141.159 114.833-256 255.992-256 35.789 0 70.502 7.305 103.168 21.717 2.526 1.118 4.676 2.944 6.195 5.248 44.544 68.13 68.087 147.337 68.087 229.035s-23.552 160.896-68.096 229.052zM383.053 14.174c-27.887-11.69-57.395-17.613-87.774-17.613-125.415 0-227.447 102.033-227.447 227.439 0 125.414 102.033 227.447 227.439 227.447 30.395 0 59.904-5.922 87.774-17.605 39.995-62.678 61.115-135.134 61.115-209.843 0.009-74.701-21.12-147.158-61.107-209.826z" />
<glyph unicode="&#xe609;" d="M376.858 480c-141.159 0-256-114.833-256-256 0-141.159 114.841-256 256-256 7.894 0 14.285 6.392 14.285 14.285v483.439c0 7.894-6.392 14.276-14.285 14.276zM362.582-3.003c-118.793 7.399-213.162 106.385-213.162 227.004 0 120.627 94.379 219.614 213.162 227.013v-454.016z" />
<glyph unicode="&#xe60a;" d="M403.080 369.263c-8.977 63.061-62.865 110.737-127.931 110.737-50.031 0-95.513-29.159-116.77-73.694-2.483 0.179-4.966 0.281-7.433 0.281-56.653 0-103.031-44.851-105.481-100.915-28.015-20.028-44.502-51.763-44.502-86.562 0-58.803 47.846-106.641 106.649-106.641h281.549c1.349 0 2.654 0.179 3.899 0.521 66.381 5.769 117.965 61.764 117.965 128.768 0.009 63.607-46.447 117.273-107.947 127.505zM388.182 143.24c-0.632-0.043-1.263-0.128-1.886-0.239h-278.682c-41.967 0-76.118 34.151-76.118 76.118 0 26.957 13.883 51.362 37.154 65.272 4.796 2.875 7.646 8.149 7.415 13.747l-0.12 1.775c-0.017 0.359-0.069 0.717-0.069 1.075 0 41.395 33.681 75.059 75.067 75.059 4.583 0 9.335-0.461 14.131-1.382 7.381-1.408 14.651 2.739 17.221 9.779 14.131 38.887 51.43 65.016 92.851 65.016 53.103 0 96.418-41.549 98.637-94.575 0.315-7.808 6.486-14.106 14.285-14.601 51.832-3.268 92.433-46.549 92.433-98.534 0-51.917-40.55-95.181-92.322-98.509zM359.697 88.2l-107.161-107.17c-2.987-2.986-2.987-7.817 0-10.803 1.502-1.485 3.447-2.227 5.401-2.227s3.899 0.743 5.401 2.236l107.17 107.178c2.986 2.986 2.986 7.817 0 10.794-2.995 2.978-7.825 2.978-10.812-0.009zM152.251 88.2c-2.987 2.986-7.799 2.986-10.786 0l-107.178-107.17c-2.986-2.986-2.986-7.817 0-10.803 1.493-1.485 3.447-2.227 5.393-2.227s3.9 0.743 5.401 2.236l107.17 107.178c2.978 2.978 2.978 7.808 0 10.786zM259.951 88.2c-2.986 2.986-7.816 2.986-10.803 0l-107.161-107.17c-2.987-2.986-2.987-7.817 0-10.803 1.476-1.485 3.43-2.227 5.393-2.227 1.954 0 3.899 0.743 5.385 2.236l107.187 107.178c2.969 2.978 2.969 7.808 0 10.786z" />
<glyph unicode="&#xe60b;" d="M403.644 366.097c-9.029 63.3-63.104 111.155-128.435 111.155-50.227 0-95.855-29.261-117.189-73.967-2.509 0.179-5 0.273-7.466 0.273-56.874 0-103.424-45.022-105.89-101.299-28.126-20.096-44.663-51.96-44.663-86.878 0-59.034 48.017-107.050 107.042-107.050h282.624c1.349 0 2.663 0.179 3.917 0.521 66.637 5.786 118.417 61.995 118.417 129.246 0 63.872-46.635 117.734-108.356 128zM388.685 139.213c-0.632-0.051-1.263-0.137-1.886-0.231h-279.757c-42.129 0-76.399 34.27-76.399 76.399 0 27.050 13.944 51.55 37.291 65.519 4.838 2.901 7.697 8.234 7.433 13.867l-0.103 1.647c-0.025 0.384-0.069 0.768-0.069 1.152 0 41.549 33.809 75.349 75.349 75.349 4.6 0 9.378-0.469 14.183-1.382 7.381-1.416 14.712 2.748 17.272 9.813 14.191 39.032 51.644 65.255 93.201 65.255 53.308 0 96.802-41.702 99.021-94.933 0.325-7.833 6.519-14.157 14.344-14.651 52.036-3.286 92.783-46.737 92.783-98.918 0-52.113-40.695-95.548-92.663-98.885zM166.221 96.214c-2.995 3.003-7.842 3.003-10.838 0l-53.189-53.197c-2.193-2.185-2.85-5.487-1.664-8.354 1.195-2.867 3.985-4.736 7.082-4.736h33.255l-46.114-46.114c-2.995-2.986-2.995-7.834 0-10.837 1.502-1.502 3.456-2.236 5.418-2.236s3.925 0.734 5.418 2.236l59.196 59.204c2.193 2.185 2.85 5.487 1.664 8.354-1.195 2.867-3.985 4.736-7.083 4.736h-33.255l40.115 40.115c2.987 2.995 2.987 7.834-0.008 10.829zM387.533 96.214c-3.003 3.003-7.851 3.003-10.846 0l-53.188-53.197c-2.193-2.185-2.85-5.487-1.664-8.354 1.195-2.867 3.985-4.736 7.082-4.736h33.255l-46.106-46.114c-2.995-2.986-2.995-7.834 0-10.837 1.493-1.502 3.456-2.236 5.418-2.236s3.917 0.734 5.418 2.236l59.187 59.204c2.193 2.185 2.85 5.487 1.664 8.354-1.195 2.867-3.985 4.736-7.082 4.736h-33.255l40.123 40.115c2.986 2.995 2.986 7.834-0.009 10.829zM276.19 96.214c-2.995 3.003-7.842 3.003-10.837 0l-53.197-53.197c-2.193-2.185-2.85-5.487-1.655-8.354 1.186-2.867 3.976-4.736 7.074-4.736h33.255l-46.114-46.114c-2.987-2.986-2.987-7.834 0-10.837 1.502-1.502 3.456-2.236 5.427-2.236 1.954 0 3.917 0.734 5.418 2.236l59.196 59.204c2.193 2.185 2.85 5.487 1.656 8.354-1.186 2.867-3.976 4.736-7.074 4.736h-33.255l40.115 40.115c2.986 2.995 2.986 7.834-0.009 10.829z" />
<glyph unicode="&#xe60c;" d="M387.413 88.2l-107.161-107.17c-2.986-2.986-2.986-7.817 0-10.803 1.502-1.476 3.447-2.227 5.401-2.227s3.899 0.751 5.401 2.236l107.17 107.178c2.986 2.986 2.986 7.817 0 10.794-2.995 2.978-7.825 2.978-10.812-0.009zM173.482 88.2l-107.17-107.17c-2.986-2.986-2.986-7.817 0-10.803 1.485-1.476 3.439-2.227 5.385-2.227 1.963 0 3.917 0.751 5.401 2.236l107.17 107.178c2.987 2.986 2.987 7.817 0 10.794s-7.799 2.978-10.786-0.009zM403.080 369.263c-8.977 63.061-62.865 110.737-127.949 110.737-50.014 0-95.496-29.159-116.753-73.694-2.483 0.179-4.966 0.281-7.433 0.281-56.653 0-103.031-44.851-105.481-100.915-28.015-20.028-44.502-51.763-44.502-86.562 0-58.803 47.846-106.641 106.649-106.641h281.549c1.349 0 2.654 0.179 3.899 0.521 66.381 5.769 117.965 61.764 117.965 128.768 0.009 63.607-46.447 117.273-107.947 127.505zM388.182 143.24c-0.632-0.043-1.263-0.128-1.886-0.239h-278.682c-41.967 0-76.118 34.151-76.118 76.118 0 26.957 13.883 51.362 37.154 65.272 4.83 2.893 7.663 8.192 7.415 13.807l-0.12 1.647c-0.017 0.384-0.069 0.76-0.069 1.152 0 41.395 33.681 75.059 75.067 75.059 4.583 0 9.352-0.461 14.131-1.382 7.364-1.399 14.651 2.739 17.221 9.779 14.131 38.887 51.43 65.015 92.834 65.015 53.12 0 96.435-41.54 98.654-94.575 0.315-7.808 6.486-14.105 14.285-14.6 51.832-3.269 92.433-46.55 92.433-98.535 0-51.925-40.55-95.19-92.322-98.517zM274.363 100.411c-2.986 2.986-7.817 2.986-10.786 0l-53-53c-2.185-2.185-2.833-5.47-1.647-8.32 1.186-2.858 3.968-4.719 7.048-4.719h33.135l-45.935-45.935c-2.987-2.986-2.987-7.817 0-10.803 1.485-1.493 3.43-2.236 5.385-2.236s3.917 0.743 5.401 2.236l58.966 58.974c2.185 2.176 2.833 5.47 1.664 8.32-1.186 2.85-3.968 4.711-7.065 4.711h-33.135l39.97 39.978c2.986 2.986 2.986 7.808 0 10.795z" />
<glyph unicode="&#xe60d;" d="M403.652 367.821c-9.037 63.3-63.104 111.155-128.435 111.155-50.219 0-95.863-29.261-117.197-73.967-2.509 0.179-5 0.273-7.466 0.273-56.874 0-103.424-45.022-105.89-101.308-28.126-20.079-44.663-51.942-44.663-86.861 0-59.034 48.017-107.067 107.050-107.067h282.615c1.349 0 2.663 0.179 3.917 0.529 66.637 5.794 118.417 62.012 118.417 129.255 0 63.863-46.626 117.726-108.347 127.992zM388.685 140.954c-0.632-0.051-1.263-0.137-1.886-0.248h-279.748c-42.138 0-76.407 34.287-76.407 76.416 0 27.050 13.944 51.533 37.291 65.519 4.822 2.885 7.671 8.184 7.433 13.798l-0.103 1.775c-0.025 0.35-0.069 0.717-0.069 1.075 0 41.549 33.8 75.35 75.35 75.35 4.6 0 9.378-0.469 14.183-1.391 7.416-1.416 14.703 2.748 17.272 9.814 14.2 39.040 51.653 65.263 93.209 65.263 53.299 0 96.802-41.702 99.021-94.933 0.315-7.834 6.519-14.157 14.336-14.651 52.036-3.286 92.783-46.728 92.783-98.91 0-52.113-40.695-95.565-92.663-98.876zM132.463 68.668c5.197 0 9.429 4.25 9.429 9.447s-4.232 9.421-9.429 9.421-9.43-4.216-9.43-9.421 4.233-9.447 9.43-9.447zM132.463 78.882c0.435 0 0.785-0.35 0.785-0.768 0-0.87-1.57-0.87-1.57 0 0.008 0.418 0.358 0.768 0.785 0.768zM132.463 25.95c-6.605 0-11.981-5.368-11.981-11.981 0-6.596 5.376-11.981 11.981-11.981s11.981 5.385 11.981 11.981c0.008 6.613-5.368 11.981-11.981 11.981zM132.463 10.632c-1.843 0-3.345 1.502-3.345 3.337s1.502 3.337 3.345 3.337c1.834 0 3.345-1.502 3.345-3.337s-1.511-3.337-3.345-3.337zM165.435 57.113c-6.605 0-11.981-5.368-11.981-11.981 0-6.596 5.376-11.964 11.981-11.964 6.613 0 11.981 5.368 11.981 11.964 0 6.613-5.368 11.981-11.981 11.981zM165.435 41.796c-1.834 0-3.337 1.502-3.337 3.337 0 1.851 1.502 3.353 3.337 3.353 1.843 0 3.345-1.502 3.345-3.353-0.008-1.834-1.502-3.337-3.345-3.337zM165.435-6.998c-6.605 0-11.981-5.385-11.981-11.998 0-6.596 5.376-11.981 11.981-11.981 6.613 0 11.981 5.385 11.981 11.981 0 6.613-5.368 11.998-11.981 11.998zM165.435-22.332c-1.834 0-3.337 1.502-3.337 3.337 0 1.851 1.502 3.353 3.337 3.353 1.843 0 3.345-1.502 3.345-3.353-0.008-1.834-1.502-3.337-3.345-3.337zM198.963 68.668c5.197 0 9.421 4.25 9.421 9.447s-4.224 9.421-9.421 9.421-9.429-4.216-9.429-9.421 4.232-9.447 9.429-9.447zM198.963 78.882c0.435 0 0.785-0.35 0.785-0.768 0-0.87-1.578-0.87-1.578 0 0.008 0.418 0.367 0.768 0.793 0.768zM198.963 25.95c-6.605 0-11.981-5.368-11.981-11.981 0-6.596 5.376-11.981 11.981-11.981 6.596 0 11.981 5.385 11.981 11.981 0.008 6.613-5.376 11.981-11.981 11.981zM198.963 10.632c-1.843 0-3.345 1.502-3.345 3.337s1.502 3.337 3.345 3.337 3.337-1.502 3.337-3.337-1.494-3.337-3.337-3.337zM231.936 57.113c-6.613 0-11.981-5.368-11.981-11.981 0-6.596 5.368-11.964 11.981-11.964 6.605 0 11.981 5.368 11.981 11.964 0 6.613-5.376 11.981-11.981 11.981zM231.936 41.796c-1.834 0-3.337 1.502-3.337 3.337 0 1.851 1.502 3.353 3.337 3.353s3.337-1.502 3.337-3.353c-0.008-1.834-1.502-3.337-3.337-3.337zM231.936-6.998c-6.613 0-11.981-5.385-11.981-11.998 0-6.596 5.368-11.981 11.981-11.981 6.605 0 11.981 5.385 11.981 11.981 0 6.613-5.376 11.998-11.981 11.998zM231.936-22.332c-1.834 0-3.337 1.502-3.337 3.337 0 1.851 1.502 3.353 3.337 3.353s3.337-1.502 3.337-3.353c-0.008-1.834-1.502-3.337-3.337-3.337zM266.505 68.668c5.205 0 9.43 4.25 9.43 9.447s-4.224 9.421-9.43 9.421c-5.197 0-9.43-4.216-9.43-9.421s4.233-9.447 9.43-9.447zM266.505 78.882c0.435 0 0.785-0.35 0.785-0.768 0-0.87-1.57-0.87-1.57 0 0.009 0.418 0.358 0.768 0.785 0.768zM266.505 25.95c-6.605 0-11.989-5.368-11.989-11.981 0-6.596 5.384-11.981 11.989-11.981s11.99 5.385 11.99 11.981c0.009 6.613-5.376 11.981-11.99 11.981zM266.505 10.632c-1.843 0-3.345 1.502-3.345 3.337s1.502 3.337 3.345 3.337 3.345-1.502 3.345-3.337-1.502-3.337-3.345-3.337zM299.478 57.113c-6.605 0-11.981-5.368-11.981-11.981 0-6.596 5.376-11.964 11.981-11.964s11.99 5.368 11.99 11.964c0 6.613-5.385 11.981-11.99 11.981zM299.478 41.796c-1.834 0-3.337 1.502-3.337 3.337 0 1.851 1.502 3.353 3.337 3.353 1.843 0 3.345-1.502 3.345-3.353-0.009-1.834-1.502-3.337-3.345-3.337zM299.478-6.998c-6.605 0-11.981-5.385-11.981-11.998 0-6.596 5.376-11.981 11.981-11.981s11.99 5.376 11.99 11.973c0 6.622-5.385 12.007-11.99 12.007zM299.478-22.332c-1.834 0-3.337 1.502-3.337 3.337 0 1.851 1.502 3.353 3.337 3.353 1.843 0 3.345-1.502 3.345-3.353-0.009-1.834-1.502-3.337-3.345-3.337zM332.997 68.668c5.205 0 9.43 4.25 9.43 9.447s-4.224 9.421-9.43 9.421c-5.197 0-9.43-4.216-9.43-9.421s4.233-9.447 9.43-9.447zM332.997 78.882c0.435 0 0.785-0.35 0.785-0.768 0-0.87-1.57-0.87-1.57 0 0.009 0.418 0.358 0.768 0.785 0.768zM332.997 25.95c-6.596 0-11.981-5.368-11.981-11.981 0-6.596 5.385-11.981 11.981-11.981 6.613 0 11.99 5.385 11.99 11.981 0.009 6.613-5.368 11.981-11.99 11.981zM332.997 10.632c-1.834 0-3.337 1.502-3.337 3.337s1.502 3.337 3.337 3.337c1.851 0 3.345-1.502 3.345-3.337s-1.493-3.337-3.345-3.337zM365.978 57.113c-6.605 0-11.981-5.368-11.981-11.981 0-6.596 5.376-11.964 11.981-11.964s11.981 5.368 11.981 11.964c0 6.613-5.376 11.981-11.981 11.981zM365.978 41.796c-1.843 0-3.345 1.502-3.345 3.337 0 1.851 1.502 3.353 3.345 3.353s3.345-1.502 3.345-3.353c-0.009-1.834-1.502-3.337-3.345-3.337zM365.978-6.998c-6.605 0-11.981-5.385-11.981-11.998 0-6.596 5.376-11.981 11.981-11.981s11.981 5.385 11.981 11.981c0 6.613-5.376 11.998-11.981 11.998zM365.978-22.332c-1.843 0-3.345 1.502-3.345 3.337 0 1.851 1.502 3.353 3.345 3.353s3.345-1.502 3.345-3.353c-0.009-1.834-1.502-3.337-3.345-3.337z" />
<glyph unicode="&#xe60e;" d="M302.404 204.595c-7.51 47.053-48.025 82.415-96.87 82.415-37.445 0-71.518-21.521-87.927-54.545-44.851 2.313-82.065-32.171-84.566-75.776-20.822-15.3-33.041-39.202-33.041-65.374 0-44.842 36.48-81.314 81.323-81.314h208.76c1.135 0 2.236 0.145 3.286 0.409 50.287 4.463 89.335 46.925 89.335 97.707 0 47.719-34.449 88.047-80.298 96.478zM289.221 37.317c-0.495-0.034-0.981-0.094-1.45-0.179h-206.447c-29.875 0-54.195 24.303-54.195 54.178 0 19.183 9.89 36.557 26.453 46.464 4.267 2.56 6.793 7.236 6.579 12.202l-0.12 2.039c0 29.449 23.97 53.41 53.41 53.41 3.269 0 6.647-0.333 10.052-0.981 6.511-1.246 13.022 2.432 15.309 8.695 10.155 27.947 36.966 46.728 66.713 46.728 38.169 0 69.308-29.858 70.904-67.968 0.281-6.938 5.769-12.544 12.697-12.979 37.248-2.338 66.423-33.442 66.423-70.801 0.009-37.325-29.133-68.429-66.329-70.81zM511.198 167.245c-1.724 4.796-5.982 8.209-11.034 8.866-75.281 9.762-132.062 74.436-132.062 150.442 0 32.546 10.171 63.599 29.44 89.788 3.021 4.096 3.473 9.54 1.203 14.097s-6.912 7.458-11.998 7.51l-0.538 0.017c-0.512 0.017-1.007 0.034-1.519 0.034-80.589 0-150.392-57.31-165.974-136.261-1.442-7.347 3.345-14.481 10.692-15.931 7.39-1.459 14.489 3.337 15.94 10.684 11.52 58.393 58.385 102.664 115.644 112.375-13.159-25.284-20.027-53.291-20.027-82.313 0-80.197 53.632-149.709 128.546-171.656-21.445-16-47.002-25.651-74.001-27.69-7.475-0.555-13.082-7.074-12.519-14.55 0.529-7.125 6.486-12.553 13.517-12.553 0.341 0 0.683 0.017 1.033 0.043 42.351 3.183 81.698 22.093 110.788 53.24 3.49 3.721 4.583 9.063 2.867 13.858z" />
<glyph unicode="&#xe60f;" d="M417.877 8.781c-106.735 20.548-184.192 114.44-184.192 223.274 0 97.971 62.421 184.661 155.341 215.705 6.161 2.057 10.146 8.013 9.719 14.481-0.426 6.486-5.171 11.861-11.554 13.082-16.111 3.106-32.486 4.676-48.64 4.676-141.159 0-256-114.833-256-256 0-141.159 114.841-256 256-256 27.606 0 54.921 4.446 81.152 13.218 6.161 2.057 10.154 8.013 9.728 14.49-0.435 6.477-5.18 11.853-11.554 13.073zM338.551-3.439c-125.406 0-227.439 102.033-227.439 227.439 0 122.137 96.776 222.097 217.677 227.243-75.69-45.611-123.665-128.060-123.665-219.187 0-103.296 62.012-194.654 153.489-234.607-6.656-0.589-13.346-0.887-20.062-0.887z" />
<glyph unicode="&#xe610;" d="M173.457 480c-16.171 0-32.529-1.57-48.648-4.668-6.374-1.22-11.119-6.596-11.554-13.082-0.427-6.468 3.567-12.424 9.728-14.481 92.911-31.053 155.341-117.734 155.341-215.714 0-108.834-77.466-202.735-184.201-223.274-6.374-1.229-11.119-6.596-11.554-13.073-0.427-6.477 3.567-12.433 9.728-14.49 26.248-8.772 53.546-13.218 81.16-13.218 141.15 0 256 114.841 256 256 0 141.167-114.85 256-256 256zM173.457-3.439c-6.715 0-13.415 0.298-20.079 0.887 91.486 39.962 153.489 131.311 153.489 234.607 0 91.128-47.974 173.576-123.648 219.187 120.9-5.145 217.677-105.105 217.677-227.242 0-125.406-102.033-227.439-227.439-227.439z" />
<glyph unicode="&#xe611;" d="M135.143 480c-7.894 0-14.285-6.383-14.285-14.276v-483.439c0-7.894 6.391-14.285 14.285-14.285 141.159 0 256 114.841 256 256 0 141.167-114.841 256-256 256zM149.418-3.003v454.016c118.793-7.399 213.163-106.385 213.163-227.012 0-120.618-94.37-219.606-213.162-227.003z" />
<glyph unicode="&#xe612;" d="M216.713 480c-35.789 0-70.502-7.296-103.168-21.7-2.526-1.118-4.677-2.944-6.186-5.248-44.544-68.156-68.070-147.353-68.070-229.051s23.535-160.887 68.088-229.034c1.51-2.313 3.661-4.13 6.186-5.248 32.657-14.413 67.371-21.718 103.151-21.718 141.167 0 256 114.841 256 256 0 141.167-114.833 256-256 256zM216.713-3.439c-30.387 0-59.887 5.922-87.766 17.613-39.995 62.669-61.115 135.125-61.115 209.826 0 74.709 21.12 147.166 61.115 209.843 27.87 11.682 57.378 17.605 87.766 17.605 125.415 0 227.447-102.033 227.447-227.447 0.009-125.406-102.024-227.439-227.447-227.439z" />
<glyph unicode="&#xe613;" d="M170.053 428.8h-69.546c-9.694 0-17.553-7.859-17.553-17.553v-374.494c0-9.702 7.85-17.553 17.553-17.553h69.546c9.694 0 17.553 7.851 17.553 17.553v374.494c-0.008 9.694-7.868 17.553-17.553 17.553zM152.499 54.298h-34.449v339.397h34.449v-339.397zM249.071 224l174.839 174.839c6.853 6.853 6.853 17.962 0 24.815-6.861 6.853-17.962 6.853-24.824 0l-187.247-187.247c-6.852-6.852-6.852-17.962 0-24.815l187.238-187.247c3.439-3.43 7.928-5.146 12.416-5.146s8.994 1.715 12.416 5.146c6.853 6.853 6.853 17.954 0 24.815l-174.839 174.839z" />
<glyph unicode="&#xe614;" d="M99.789 393.651c-32.913 0-59.699-26.786-59.699-59.699s26.786-59.699 59.699-59.699 59.699 26.786 59.699 59.699-26.778 59.699-59.699 59.699zM99.789 288.751c-24.926 0-45.193 20.284-45.193 45.201 0 24.926 20.267 45.201 45.193 45.201s45.201-20.275 45.201-45.201c0-24.918-20.275-45.201-45.201-45.201zM454.366 411h-224.239c-8.013 0-14.506-6.494-14.506-14.507v-71.74h-16.025v50.671c0 31.778-25.856 57.625-57.634 57.625h-84.335c-31.778-0.008-57.626-25.856-57.626-57.634v-302.831c0-31.778 25.848-57.625 57.626-57.625h84.335c2.858 0 5.803 0.239 8.994 0.751 7.040 1.127 12.228 7.202 12.228 14.336v212.608h21.905c8.013 0 14.506 6.494 14.506 14.507v38.579h16.025v-71.748c0-8.005 6.494-14.498 14.506-14.498h224.239c31.786 0 57.634 25.847 57.634 57.625v86.255c0 31.778-25.848 57.625-57.634 57.625zM29.005 269.482c8.354-7.091 13.5-17.613 13.5-29.192v-128.418c0-11.512-5.154-22.050-13.499-29.15v186.76zM170.582 271.659h-21.913c-8.005 0-14.498-6.494-14.498-14.498v-213.189h-76.544c-15.215 0-27.648 11.938-28.535 26.931 14.038 8.534 23.082 23.902 23.082 40.977v128.41c0 17.203-9.063 32.554-23.168 41.054v94.072c0 15.786 12.834 28.621 28.621 28.621h84.335c15.786 0 28.621-12.834 28.621-28.621v-103.757zM244.625 381.995h209.741c15.786 0 28.621-12.834 28.621-28.621v-22.963h-176.197c-26.445 0-47.949-21.512-47.949-47.958v-43.946h-14.216v143.488zM454.366 238.498h-185.856v43.947c0 21.12 17.178 38.289 38.281 38.289h176.196v-53.623c0.009-15.778-12.834-28.613-28.621-28.613z" />
<glyph unicode="&#xe615;" d="M223.138 428.8h-69.547c-9.694 0-17.544-7.859-17.544-17.553v-374.494c0-9.702 7.851-17.553 17.544-17.553h69.546c9.702 0 17.553 7.851 17.553 17.553v374.494c0 9.694-7.851 17.553-17.553 17.553zM205.594 54.298h-34.44v339.397h34.44v-339.397zM358.409 428.8h-69.546c-9.702 0-17.553-7.859-17.553-17.553v-374.494c0-9.702 7.851-17.553 17.553-17.553h69.546c9.694 0 17.544 7.851 17.544 17.553v374.494c0 9.694-7.851 17.553-17.544 17.553zM340.847 54.298h-34.44v339.397h34.44v-339.397z" />
<glyph unicode="&#xe616;" d="M408.115 394.666h-304.231c-10.249 0-18.552-8.303-18.552-18.543v-304.248c0-10.24 8.303-18.543 18.552-18.543h304.231c10.248 0 18.551 8.303 18.551 18.543v304.248c0 10.24-8.303 18.543-18.551 18.543zM389.581 90.411h-267.161v267.178h267.17v-267.178z" />
<glyph unicode="&#xe617;" d="M362.035 236.407l-187.256 187.247c-5.009 5.018-12.561 6.528-19.123 3.798-6.562-2.713-10.838-9.113-10.838-16.213v-374.494c0-7.099 4.275-13.5 10.838-16.214 2.176-0.896 4.463-1.331 6.715-1.331 4.565 0 9.063 1.784 12.407 5.146l187.247 187.247c6.861 6.853 6.861 17.963 0.009 24.815zM179.925 79.121v289.758l144.879-144.879-144.879-144.879z" />
<glyph unicode="&#xe618;" d="M128.887 224l174.831 174.839c6.861 6.853 6.861 17.962 0 24.824s-17.962 6.852-24.815 0l-187.256-187.256c-6.853-6.852-6.853-17.962 0-24.815l187.247-187.247c3.43-3.43 7.919-5.146 12.416-5.146s8.977 1.715 12.408 5.146c6.861 6.853 6.861 17.954 0 24.815l-174.831 174.839zM414.651 427.461c-6.579 2.722-14.114 1.22-19.123-3.798l-187.247-187.256c-6.861-6.852-6.861-17.963 0-24.815l187.238-187.247c3.362-3.362 7.859-5.146 12.425-5.146 2.262 0 4.539 0.435 6.707 1.331 6.57 2.714 10.837 9.113 10.837 16.214v374.502c-0.009 7.099-4.275 13.491-10.837 16.214zM390.383 79.121l-144.87 144.879 144.87 144.879v-289.758z" />
<glyph unicode="&#xe619;" d="M506.632 210.885c-3.37 2.432-7.705 3.098-11.648 1.8l-100.659-33.28v14.788c0 17.877-14.533 32.41-32.409 32.41h-322.935c-17.878 0-32.41-14.532-32.41-32.41v-156.749c0-17.869 14.532-32.401 32.41-32.401h322.935c17.877 0 32.409 14.533 32.409 32.401v17.041l100.83-31.675c1.272-0.401 2.586-0.589 3.882-0.589 2.722 0 5.418 0.862 7.663 2.509 3.328 2.44 5.291 6.315 5.291 10.445v165.206c0.009 4.164-1.979 8.072-5.359 10.505zM368.418 37.453c0-3.584-2.918-6.494-6.502-6.494h-322.935c-3.584 0-6.502 2.91-6.502 6.494v156.749c0 3.584 2.919 6.502 6.502 6.502h322.935c3.584 0 6.502-2.918 6.502-6.502v-156.749zM486.093 52.822l-91.767 28.825v70.469l91.767 30.344v-129.638zM324.284 89.387h-244.804c-36.327 0-36.327-7.714-36.327-11.426v-17.186c0-3.712 0-11.426 36.327-11.426h244.804c36.335 0 36.335 7.714 36.335 11.426v17.186c0 3.704 0 11.426-36.335 11.426zM347.665 64.325c-3.644-0.896-11.478-2.022-23.382-2.022h-244.804c-11.912 0-19.737 1.127-23.373 2.022v10.078c3.635 0.904 11.469 2.031 23.373 2.031h244.804c11.913 0 19.738-1.127 23.382-2.031v-10.078zM301.577 151.288c6.135 0 11.127 4.992 11.127 11.127 0 6.144-4.992 11.136-11.127 11.136s-11.127-4.992-11.127-11.136c0-6.135 4.992-11.127 11.127-11.127zM301.577 164.906c1.365 0 2.483-1.118 2.483-2.491s-1.118-2.491-2.483-2.491c-1.374 0-2.491 1.118-2.491 2.491s1.118 2.491 2.491 2.491zM265.873 151.288c6.135 0 11.127 4.992 11.127 11.127 0 6.144-4.992 11.136-11.127 11.136s-11.127-4.992-11.127-11.136c0.008-6.135 4.992-11.127 11.127-11.127zM265.873 164.906c1.374 0 2.491-1.118 2.491-2.491s-1.118-2.491-2.491-2.491-2.491 1.118-2.491 2.491 1.118 2.491 2.491 2.491zM228.617 151.288c6.144 0 11.136 4.992 11.136 11.127 0 6.144-4.992 11.136-11.136 11.136-6.136 0-11.127-4.992-11.127-11.136 0-6.135 4.992-11.127 11.127-11.127zM228.617 164.906c1.374 0 2.492-1.118 2.492-2.491s-1.118-2.491-2.492-2.491-2.492 1.118-2.492 2.491 1.118 2.491 2.492 2.491zM106.368 230.221c58.649 0 106.368 47.719 106.368 106.368 0 58.658-47.719 106.368-106.368 106.368s-106.368-47.719-106.368-106.376c0-58.65 47.718-106.36 106.368-106.36zM106.368 417.041c44.365 0 80.461-36.088 80.461-80.461s-36.088-80.461-80.461-80.461-80.461 36.088-80.461 80.461 36.096 80.461 80.461 80.461zM310.938 230.221c48.99 0 88.849 39.868 88.849 88.858 0 48.998-39.859 88.858-88.849 88.858-48.998 0-88.866-39.859-88.866-88.858s39.868-88.858 88.866-88.858zM310.938 382.029c34.705 0 62.942-28.245 62.942-62.951s-28.237-62.95-62.942-62.95c-34.714 0-62.968 28.245-62.968 62.95s28.254 62.951 62.968 62.951zM106.368 306.722c16.461 0 29.85 13.398 29.85 29.858 0 16.469-13.389 29.858-29.85 29.858s-29.858-13.389-29.858-29.858c0-16.453 13.398-29.858 29.858-29.858zM106.368 353.485c9.319 0 16.888-7.586 16.888-16.896s-7.578-16.896-16.888-16.896c-9.327 0-16.896 7.586-16.896 16.896s7.569 16.896 16.896 16.896zM310.938 290.44c15.786 0 28.621 12.843 28.621 28.63s-12.842 28.63-28.621 28.63c-15.795 0-28.63-12.843-28.63-28.63s12.842-28.63 28.63-28.63zM310.938 334.754c8.644 0 15.675-7.040 15.675-15.685s-7.031-15.675-15.675-15.675c-8.653 0-15.685 7.031-15.685 15.675s7.040 15.685 15.685 15.685z" />
<glyph unicode="&#xe61a;" d="M470.511 351.863h-184.329l81.698 81.69c4.881 4.881 4.881 12.8 0 17.681s-12.8 4.881-17.681 0l-94.2-94.191-101.248 101.248c-4.881 4.881-12.8 4.881-17.681 0s-4.881-12.8 0-17.673l88.746-88.747h-184.328c-22.878-0.008-41.489-18.619-41.489-41.497v-282.846c0-22.878 18.611-41.489 41.489-41.489h429.014c22.878 0 41.489 18.62 41.489 41.489v282.846c0.008 22.878-18.611 41.489-41.481 41.489zM486.989 27.537c0-9.088-7.399-16.486-16.486-16.486h-429.014c-9.088 0-16.486 7.39-16.486 16.486v282.837c0 9.088 7.39 16.487 16.486 16.487h429.014c9.079 0 16.486-7.39 16.486-16.487v-282.837zM429.926 307.669h-347.861c-19.703 0-35.729-15.803-35.729-35.234v-146.714c0-19.43 16.026-35.234 35.729-35.234h347.861c19.712 0 35.738 15.803 35.738 35.234v146.714c0 19.43-16.034 35.234-35.738 35.234zM453.163 125.713c0-12.536-10.428-22.733-23.245-22.733h-347.853c-12.808 0-23.227 10.197-23.227 22.733v146.722c0 12.535 10.419 22.733 23.227 22.733h347.861c12.817 0 23.245-10.197 23.245-22.733v-146.722zM459.418 74.59h-165.453c-2.313 0-4.164-1.861-4.164-4.164v-37.385c0-2.304 1.861-4.164 4.164-4.164h165.453c2.304 0 4.164 1.869 4.164 4.164v37.385c0 2.304-1.869 4.164-4.164 4.164zM455.253 37.205h-157.115v29.048h157.115v-29.048zM218.026 74.59h-165.435c-2.313 0-4.165-1.861-4.165-4.164v-37.385c0-2.304 1.861-4.164 4.165-4.164h165.435c2.304 0 4.165 1.869 4.165 4.164v37.385c0 2.304-1.869 4.164-4.165 4.164zM213.863 37.205h-157.107v29.048h157.099v-29.048zM310.425 49.365h135.45c2.304 0 4.164 1.869 4.164 4.164 0 2.313-1.869 4.173-4.164 4.173h-135.45c-2.313 0-4.173-1.869-4.173-4.173 0-2.296 1.861-4.164 4.173-4.164zM67.576 49.365h135.458c2.304 0 4.165 1.869 4.165 4.164 0 2.313-1.869 4.173-4.165 4.173h-135.458c-2.304 0-4.165-1.869-4.165-4.173 0-2.296 1.861-4.164 4.165-4.164z" />
<glyph unicode="&#xe61b;" d="M256 394.666c-94.114 0-170.667-76.57-170.667-170.675s76.552-170.658 170.667-170.658c94.097 0 170.667 76.553 170.667 170.658s-76.57 170.675-170.667 170.675zM256 90.411c-73.668 0-133.581 59.921-133.581 133.581 0 73.668 59.912 133.598 133.581 133.598 73.651 0 133.581-59.93 133.581-133.598 0-73.659-59.93-133.581-133.581-133.581z" />
<glyph unicode="&#xe61c;" d="M420.352 236.407l-187.256 187.247c-6.852 6.853-17.954 6.853-24.815 0s-6.861-17.962 0-24.823l174.831-174.831-174.831-174.839c-6.861-6.861-6.861-17.962 0-24.815 3.439-3.43 7.919-5.146 12.407-5.146s8.986 1.715 12.407 5.146l187.256 187.247c6.844 6.853 6.844 17.963 0 24.815zM303.719 236.407l-187.238 187.247c-5.017 5.018-12.57 6.528-19.132 3.798-6.562-2.713-10.838-9.113-10.838-16.213v-374.494c0-7.099 4.284-13.5 10.838-16.214 2.176-0.896 4.463-1.331 6.716-1.331 4.566 0 9.063 1.784 12.416 5.146l187.23 187.247c6.87 6.861 6.87 17.963 0.009 24.815zM121.617 79.121v289.758l144.87-144.879-144.87-144.879z" />
<glyph unicode="&#xe61d;" d="M411.503 428.8h-69.546c-9.702 0-17.553-7.859-17.553-17.553v-374.494c0-9.702 7.851-17.553 17.553-17.553h69.546c9.702 0 17.553 7.851 17.553 17.553v374.494c-0.009 9.694-7.859 17.553-17.553 17.553zM393.95 54.298h-34.449v339.397h34.449v-339.397zM112.913 423.654c-6.87 6.853-17.962 6.853-24.823 0-6.853-6.852-6.853-17.962 0-24.815l174.839-174.839-174.839-174.839c-6.853-6.853-6.853-17.962 0-24.815 3.43-3.43 7.927-5.146 12.416-5.146 4.48 0 8.977 1.715 12.407 5.146l187.238 187.247c3.294 3.294 5.154 7.748 5.154 12.407 0 4.65-1.861 9.113-5.154 12.407l-187.238 187.247z" />
<glyph unicode="&#xe61e;" d="M443.238 153.122h-374.477c-9.703 0-17.561-7.851-17.561-17.545v-69.555c0-9.694 7.859-17.545 17.561-17.545h374.486c9.702 0 17.562 7.851 17.562 17.544v69.555c-0.009 9.694-7.868 17.545-17.57 17.545zM425.702 83.575h-339.405v34.449h339.397v-34.449zM81.16 182.315l174.839 174.839 174.839-174.839c3.422-3.422 7.919-5.137 12.399-5.137 4.497 0 8.994 1.707 12.416 5.137 6.853 6.861 6.853 17.962 0 24.824l-187.247 187.247c-6.853 6.853-17.963 6.853-24.815 0l-187.247-187.247c-6.852-6.861-6.852-17.962 0-24.824 6.852-6.853 17.963-6.853 24.815 0z" />
<glyph unicode="&#xe61f;" d="M511.949 386.731l-4.787 51.942c-0.315 3.456-1.997 6.639-4.668 8.858s-6.067 3.303-9.549 2.969l-443.077-40.755c-7.185-0.674-12.484-7.040-11.819-14.216l4.77-51.942c0.069-0.649 0.214-1.272 0.367-1.903l-7.8-46.31-35.209-208.7c-0.581-3.413 0.214-6.929 2.236-9.753s5.069-4.736 8.482-5.308l438.767-74.001c0.734-0.128 1.467-0.179 2.185-0.179 6.264 0 11.801 4.514 12.868 10.897l43.904 260.275c0.58 3.413-0.214 6.929-2.236 9.762-1.997 2.825-5.051 4.736-8.465 5.308l-340.139 57.361 342.332 31.488c7.202 0.657 12.484 7.031 11.836 14.208zM484.719 397.355l-9.514-0.879-26.82 23.663 33.954 3.123 2.381-25.907zM365.832 386.423l-26.82 23.654 97.45 8.969 26.803-23.663-97.433-8.96zM249.531 375.722l-26.803 23.663 104.363 9.6 26.803-23.663-104.363-9.6zM128.666 364.613l-26.803 23.654 108.936 10.026 26.803-23.663-108.936-10.018zM89.933 387.174l26.803-23.663-49.067-4.514-2.398 25.907 24.662 2.27zM351.351 281.881l-28.731-21.7-103.356 17.434 28.749 21.691 103.338-17.425zM459.665 263.62l-28.749-21.691-96.487 16.264 28.749 21.692 96.486-16.264zM480.666 260.079l-4.352-25.805-33.587 5.657 28.749 21.701 9.19-1.553zM207.454 279.611l-107.87 18.185 28.749 21.691 107.87-18.176-28.749-21.701zM87.766 299.793l-24.431 4.113 4.352 25.814 48.819-8.235-28.74-21.692zM441.113 25.566l-412.979 69.649 30.848 182.929 412.979-69.649-30.848-182.929zM420.318 69.060l-361.549 60.971c-3.533 0.58-6.929-1.8-7.535-5.359s1.8-6.929 5.367-7.535l361.549-60.971c0.367-0.068 0.734-0.094 1.101-0.094 3.115 0 5.88 2.262 6.434 5.453 0.598 3.567-1.8 6.929-5.368 7.535z" />
<glyph unicode="&#xe620;" d="M226.483 306.586c-45.534 0-82.577-37.052-82.577-82.586s37.043-82.586 82.577-82.586c45.543 0 82.585 37.051 82.585 82.586s-37.043 82.586-82.585 82.586zM226.483 171.315c-29.048 0-52.685 23.637-52.685 52.685s23.637 52.702 52.685 52.702c29.056 0 52.702-23.646 52.702-52.702s-23.646-52.685-52.702-52.685zM291.379 70.383c-20.548-8.704-42.385-13.099-64.896-13.099-21.897 0-43.196 4.182-63.274 12.416-3.823 1.57-8.184-0.264-9.745-4.087-1.57-3.815 0.248-8.183 4.079-9.753 21.88-8.986 45.082-13.534 68.941-13.534 24.525 0 48.316 4.796 70.715 14.285 3.806 1.604 5.581 5.982 3.976 9.779s-5.982 5.598-9.796 3.993zM393.207 224c0-22.118-4.258-43.579-12.655-63.821-1.587-3.815 0.231-8.2 4.045-9.779 0.938-0.384 1.911-0.563 2.858-0.563 2.935 0 5.717 1.733 6.912 4.616 9.156 22.067 13.798 45.466 13.798 69.546 0 24.517-4.805 48.315-14.285 70.716-1.604 3.798-5.982 5.564-9.788 3.968-3.798-1.605-5.581-5.982-3.976-9.779 8.678-20.574 13.090-42.402 13.090-64.905zM163.208 378.299c20.088 8.252 41.386 12.433 63.275 12.433 21.905 0 43.195-4.181 63.274-12.433 0.93-0.384 1.894-0.563 2.833-0.563 2.944 0 5.735 1.75 6.921 4.651 1.57 3.815-0.256 8.183-4.079 9.753-21.888 8.986-45.082 13.534-68.95 13.534-23.851 0-47.053-4.548-68.941-13.534-3.823-1.57-5.641-5.93-4.079-9.753s5.922-5.658 9.745-4.088zM59.767 224c0 21.718 4.096 42.821 12.203 62.754 1.561 3.814-0.281 8.166-4.105 9.736-3.823 1.553-8.184-0.281-9.736-4.113-8.824-21.718-13.312-44.714-13.312-68.369 0-24.533 4.804-48.316 14.285-70.715 1.212-2.85 3.977-4.565 6.886-4.565 0.973 0 1.954 0.197 2.91 0.598 3.806 1.604 5.573 5.982 3.977 9.779-8.695 20.548-13.107 42.377-13.107 64.896zM226.483 109.397c18.363 0 36.633 4.446 52.813 12.868 3.661 1.903 5.086 6.417 3.183 10.070-1.911 3.67-6.417 5.086-10.087 3.183-14.259-7.416-29.704-11.187-45.918-11.187-16.197 0-31.65 3.763-45.918 11.187-3.669 1.903-8.175 0.486-10.087-3.183-1.903-3.652-0.478-8.166 3.183-10.070 16.205-8.414 34.466-12.868 52.83-12.868zM318.396 279.603c-3.678-1.903-5.12-6.4-3.234-10.070 7.288-14.183 10.983-29.5 10.983-45.534 0-16.12-3.934-32.137-11.392-46.319-1.92-3.652-0.521-8.166 3.14-10.087 1.11-0.58 2.304-0.87 3.473-0.87 2.68 0 5.282 1.45 6.613 4.002 8.576 16.298 13.107 34.714 13.107 53.265 0 18.432-4.25 36.053-12.638 52.369-1.869 3.669-6.392 5.12-10.053 3.242zM173.679 325.751c-3.661-1.92-5.086-6.417-3.183-10.087 1.331-2.568 3.942-4.019 6.639-4.019 1.161 0 2.329 0.264 3.439 0.837 14.259 7.416 29.704 11.187 45.91 11.187s31.65-3.763 45.91-11.187c3.67-1.903 8.166-0.486 10.087 3.183 1.903 3.67 0.478 8.184-3.183 10.087-32.367 16.819-73.258 16.828-105.617 0zM126.823 224c0 16.051 3.695 31.369 10.983 45.534 1.886 3.687 0.444 8.183-3.226 10.070-3.669 1.903-8.175 0.452-10.070-3.217-8.38-16.315-12.638-33.937-12.638-52.386 0-18.534 4.531-36.95 13.107-53.248 1.34-2.551 3.934-4.002 6.613-4.002 1.178 0 2.363 0.281 3.473 0.87 3.661 1.92 5.060 6.434 3.131 10.087-7.433 14.157-11.375 30.174-11.375 46.293zM497.050 56.517h-118.247c45.551 41.447 74.18 101.18 74.18 167.483 0 124.885-101.606 226.5-226.5 226.5-124.885 0-226.483-101.615-226.483-226.5 0-124.903 101.598-226.5 226.483-226.5 40.277 0 78.089 10.615 110.899 29.115h159.667c8.26 0 14.95 6.699 14.95 14.95s-6.69 14.95-14.95 14.95zM29.884 224c0 108.399 88.201 196.6 196.6 196.6 108.416 0 196.608-88.201 196.608-196.6 0-108.416-88.192-196.6-196.608-196.6-108.399 0-196.6 88.183-196.6 196.6z" />
<glyph unicode="&#xe621;" d="M124.971 244.31c3.533-2.569 15.531-11.127 21.649-13.679 13.056-5.445 27.127-9.063 42.846-11.025 14.472-19.865 39.535-31.966 66.986-31.966 28.015 0 54.050 13.039 68.233 33.724 12.766 1.997 24.414 4.983 35.447 9.088 6.835 2.526 22.050 11.434 25.054 13.201 3.183 1.877 5.401 5.077 6.016 8.73s-0.401 7.407-2.782 10.24c-6.152 7.296-13.671 17.494-15.070 21.026-3.515 8.875-5.034 40.712-5 60.51 0 63.138-51.464 114.5-114.731 114.5-63.274 0-114.748-51.362-114.748-114.5 0-0.179 0-0.359 0.008-0.538 0.819-18.91 0.691-49.519-2.117-58.334-1.118-3.524-8.44-14.934-14.584-23.356-1.963-2.696-2.782-6.084-2.261-9.395 0.52-3.294 2.338-6.263 5.052-8.226zM268.254 213.913c-3.815-0.7-7.765-1.067-11.801-1.067-5.837 0-11.554 0.81-16.964 2.287-26.803 9.907-46.635 43.827-46.635 84.138 0 10.863 1.459 21.427 4.335 31.522 9.046-5.521 18.833-10.12 29.209-13.721 15.923-5.521 32.025-8.32 47.838-8.32 15.719 0 30.302 2.808 42.735 8.175 0.887-5.794 1.314-11.708 1.314-17.664 0-42.010-21.504-77.175-50.031-85.351zM160.785 277.64c5.129 16.077 3.678 57.805 3.294 66.782 0.145 49.118 40.251 89.029 89.541 89.029 49.365 0 89.531-40.056 89.531-89.25-0.017-8.755 0.197-53.274 6.767-69.837 1.817-4.6 5.871-10.692 9.848-16.12-3.618-1.945-6.818-3.575-8.397-4.155-9.848-3.661-20.438-6.246-32.12-7.995 7.365 15.411 11.631 33.63 11.631 53.171 0 9.634-1.033 19.183-3.098 28.373-0.435 1.946-1.767 3.567-3.584 4.378s-3.917 0.708-5.666-0.273c-12.049-6.801-27.366-10.394-44.296-10.394-14.413 0-29.115 2.56-43.708 7.62-12.041 4.182-23.219 9.822-33.203 16.76-1.605 1.118-3.635 1.425-5.504 0.837-1.861-0.597-3.345-2.014-4.019-3.848-5.018-13.739-7.569-28.357-7.569-43.461 0-20.155 4.548-38.929 12.347-54.639-13.534 1.673-25.191 4.65-36.275 9.275-1.024 0.435-3.413 1.869-6.392 3.806 4.386 6.648 9.173 14.584 10.871 19.942zM346.3 204.774c-5.12 3.413-11.964 2.663-16.179-1.826-21.965-23.27-47.437-35.558-73.685-35.558h-0.87c-26.249 0-51.729 12.288-73.668 35.558-4.224 4.48-11.067 5.24-16.179 1.826-60.331-40.389-98.014-118.093-98.347-202.786-0.008-3.362 1.305-6.57 3.678-8.943 2.364-2.381 5.573-3.712 8.926-3.712h175.59c0.298 0 0.58 0 0.87 0h175.599c3.353 0 6.553 1.331 8.918 3.721 2.363 2.373 3.704 5.581 3.687 8.943-0.341 84.685-38.024 162.389-98.338 202.777zM256.435 14.55c-0.281-0.009-0.563-0.009-0.87 0h-162.629c3.507 67.397 32.743 128.248 78.464 163.294 25.088-23.373 53.999-35.669 84.165-35.669h0.87c30.166 0 59.067 12.288 84.165 35.678 45.713-35.046 74.948-95.897 78.464-163.303h-162.628z" />
<glyph unicode="&#xe622;" d="M462.933 79.317h-2.551v4.087c0 32.197-26.18 58.402-58.377 58.402s-58.385-26.197-58.385-58.402v-4.087h-2.543c-7.082 0-12.825-5.743-12.825-12.825v-85.666c0-7.082 5.743-12.825 12.825-12.825h121.856c7.082 0 12.825 5.743 12.825 12.825v85.666c0 7.082-5.743 12.825-12.825 12.825zM369.263 83.405c0 18.057 14.695 32.751 32.743 32.751s32.726-14.695 32.726-32.751v-4.087h-65.467v4.087zM450.108-6.349h-96.205v60.015h96.205v-60.015zM398.473 25.925l-3.447-18.373h14.933l-3.447 18.338c3.234 1.519 5.495 4.779 5.495 8.576 0 5.223-4.25 9.472-9.472 9.472-5.231 0-9.481-4.25-9.481-9.472-0.009-3.772 2.219-7.014 5.418-8.542zM402.526 35.387c0.521 0 0.921-0.409 0.921-0.921 0-1.050-1.861-1.033-1.861 0 0.009 0.512 0.418 0.921 0.938 0.921zM307.294 28.211h-245.043c3.576 68.557 33.305 130.466 79.821 166.119 25.523-23.783 54.921-36.284 85.615-36.284s60.101 12.502 85.623 36.284c16.717-12.808 31.402-29.115 43.742-48.606 3.781-5.982 11.707-7.765 17.698-3.968 5.982 3.789 7.757 11.707 3.968 17.69-16.307 25.762-36.369 46.712-59.623 62.285-5.188 3.473-12.16 2.696-16.461-1.869-22.323-23.654-48.239-36.164-74.948-36.164s-52.617 12.51-74.939 36.164c-4.301 4.557-11.247 5.342-16.461 1.869-61.371-41.088-99.704-120.141-100.045-206.293-0.008-3.405 1.331-6.682 3.737-9.096s5.683-3.781 9.088-3.781h258.227c7.082 0 12.825 5.743 12.825 12.825s-5.743 12.825-12.825 12.825zM94.831 261.93c3.593-2.603 15.813-11.315 22.033-13.91 13.278-5.53 27.579-9.216 43.571-11.213 14.737-20.207 40.226-32.52 68.138-32.52 28.501 0 54.989 13.278 69.418 34.313 12.988 2.031 24.841 5.077 36.070 9.242 6.929 2.577 22.442 11.639 25.472 13.431 3.251 1.911 5.495 5.163 6.135 8.883 0.632 3.729-0.401 7.535-2.841 10.419-6.247 7.433-13.901 17.792-15.326 21.401-3.584 9.029-5.128 41.412-5.086 61.542 0.009 64.222-52.352 116.48-116.71 116.48-64.367 0-116.736-52.258-116.736-116.48 0-0.179 0-0.367 0.008-0.546 0.837-19.243 0.709-50.363-2.142-59.332-1.144-3.593-8.61-15.19-14.848-23.766-1.997-2.747-2.833-6.195-2.304-9.549 0.537-3.379 2.389-6.392 5.145-8.397zM240.606 231.023c-3.899-0.717-7.928-1.093-12.024-1.093-6.349 0-12.51 1.007-18.329 2.705-26.726 10.573-46.362 44.732-46.362 85.206 0 11.042 1.476 21.794 4.403 32.077 9.199-5.615 19.157-10.291 29.721-13.961 16.188-5.615 32.572-8.465 48.674-8.465 15.966 0 30.806 2.858 43.469 8.32 0.887-5.888 1.331-11.913 1.331-17.962 0-42.744-21.871-78.507-50.885-86.827zM131.277 295.851c5.206 16.35 3.738 58.803 3.353 67.934 0.137 49.963 40.943 90.565 91.077 90.565 50.219 0 91.067-40.746 91.067-90.803-0.017-8.909 0.205-54.195 6.887-71.014 1.861-4.694 5.965-10.888 10.035-16.41-3.687-1.988-6.929-3.643-8.55-4.241-10.018-3.721-20.787-6.349-32.666-8.124 7.483 15.676 11.836 34.219 11.836 54.093 0 9.787-1.058 19.507-3.149 28.859-0.443 1.98-1.792 3.644-3.652 4.463-1.851 0.827-3.985 0.717-5.76-0.273-12.262-6.929-27.844-10.573-45.056-10.573-14.669 0-29.637 2.611-44.476 7.748-12.271 4.267-23.637 10.001-33.775 17.050-1.63 1.135-3.703 1.45-5.598 0.853s-3.397-2.048-4.088-3.917c-5.112-13.986-7.697-28.859-7.697-44.211 0-20.506 4.633-39.612 12.57-55.586-13.773 1.707-25.617 4.736-36.898 9.43-1.041 0.443-3.473 1.911-6.502 3.874 4.438 6.75 9.31 14.822 11.042 20.284z" />
<glyph unicode="&#xe623;" d="M490.666 224c0 129.391-105.267 234.667-234.658 234.667s-234.675-105.276-234.675-234.667c0-66.568 27.904-126.703 72.576-169.447 0.743-0.921 1.596-1.767 2.594-2.466 41.898-38.904 97.954-62.754 159.505-62.754 62.507 0 119.339 24.618 161.451 64.606 1.007 0.709 1.861 1.553 2.611 2.491 43.512 42.624 70.596 101.982 70.596 167.569zM46.651 224c0 115.43 93.918 209.349 209.357 209.349 115.43 0 209.339-93.918 209.339-209.349 0-52.847-19.729-101.154-52.156-138.043-16.819 29.926-39.057 54.682-65.144 72.141-5.137 3.43-12.007 2.663-16.256-1.834-22.041-23.365-47.616-35.721-73.959-35.721h-0.87c-26.359 0-51.942 12.348-73.984 35.721-4.25 4.497-11.119 5.265-16.256 1.834-26.658-17.843-49.305-43.238-66.245-74.061-33.442 37.111-53.828 86.195-53.828 139.964zM119.39 65.57c13.568 26.692 31.658 49.075 53.061 65.485 25.199-23.475 54.221-35.823 84.514-35.823h0.87c30.285 0 59.298 12.348 84.497 35.823 20.941-16.060 38.733-37.871 52.216-63.813-36.95-32.683-85.453-52.582-138.538-52.582-52.173 0-99.917 19.226-136.619 50.91zM125.799 197.803c3.55-2.586 15.616-11.187 21.769-13.738 13.099-5.462 27.221-9.088 43.008-11.077 14.541-19.951 39.706-32.103 67.277-32.103 28.126 0 54.281 13.107 68.514 33.869 12.808 2.005 24.507 5.017 35.618 9.13 6.844 2.543 22.144 11.486 25.13 13.261 3.217 1.886 5.427 5.103 6.050 8.772 0.632 3.678-0.392 7.433-2.791 10.283-6.178 7.322-13.73 17.561-15.138 21.112-3.524 8.917-5.060 40.883-5.009 60.766 0 63.394-51.695 114.978-115.217 114.978-63.539 0-115.243-51.584-115.243-114.978 0-0.179 0.008-0.358 0.017-0.537 0.819-18.995 0.691-49.715-2.125-58.573-1.135-3.55-8.49-15.002-14.651-23.458-1.989-2.722-2.808-6.118-2.278-9.43 0.529-3.337 2.355-6.315 5.069-8.277zM269.704 167.279c-3.84-0.709-7.808-1.075-11.861-1.075-5.871 0-11.597 0.819-17.016 2.296-26.922 9.933-46.848 44.007-46.848 84.497 0 10.888 1.468 21.504 4.344 31.65 9.105-5.547 18.944-10.163 29.338-13.764 15.992-5.547 32.162-8.354 48.051-8.354 15.769 0 30.413 2.825 42.897 8.209 0.879-5.837 1.314-11.767 1.314-17.733 0.009-42.206-21.572-77.525-50.219-85.726zM161.784 231.279c5.137 16.137 3.686 58.043 3.311 67.055 0.145 49.314 40.422 89.404 89.915 89.404 49.57 0 89.899-40.218 89.899-89.626-0.026-8.789 0.205-53.504 6.784-70.118 1.834-4.634 5.888-10.752 9.907-16.197-3.635-1.954-6.827-3.575-8.431-4.173-9.916-3.678-20.548-6.281-32.256-8.030 7.39 15.471 11.69 33.784 11.69 53.41 0 9.643-1.050 19.226-3.123 28.493-0.435 1.954-1.758 3.593-3.601 4.403-1.826 0.819-3.934 0.717-5.675-0.264-12.101-6.835-27.486-10.445-44.484-10.445-14.473 0-29.252 2.577-43.904 7.655-12.066 4.181-23.287 9.839-33.349 16.827-1.621 1.126-3.669 1.425-5.53 0.837s-3.353-2.023-4.028-3.865c-5.035-13.815-7.577-28.493-7.577-43.631 0-20.207 4.548-39.023 12.347-54.784-13.448 1.698-25.446 4.668-36.394 9.224-1.024 0.435-3.43 1.886-6.417 3.823 4.386 6.63 9.199 14.609 10.914 20.002z" />
<glyph unicode="&#xe624;" d="M481.894 109.969l-36.087 36.087c-2.62 2.62-6.853 2.62-9.464 0l-104.747-104.747c-0.154-0.145-0.256-0.307-0.384-0.469-0.12-0.137-0.231-0.256-0.333-0.401-0.264-0.375-0.495-0.776-0.674-1.195-0.017-0.034-0.043-0.060-0.060-0.103l-25.796-61.875c-1.041-2.509-0.469-5.393 1.45-7.305 1.28-1.28 3.003-1.962 4.736-1.962 0.87 0 1.741 0.179 2.577 0.521l61.884 25.796c0.734 0.315 1.365 0.776 1.945 1.305 0.060 0.060 0.154 0.077 0.214 0.145l104.738 104.738c1.255 1.255 1.954 2.961 1.954 4.736s-0.7 3.464-1.954 4.728zM441.071 131.849l8.517-8.517-94.686-94.686c-0.205-0.205-0.29-0.486-0.469-0.709l-8.635 8.635 95.274 95.274zM322.978-12.86l15.693 37.632 21.939-21.947-37.632-15.685zM372.421 9.959l-8.755 8.755c0.231 0.179 0.503 0.256 0.709 0.469l94.695 94.686 8.635-8.635-95.283-95.274zM280.098 8.269h-224.802c3.737 71.594 34.773 136.226 83.353 173.448 26.649-24.832 57.361-37.88 89.403-37.88 32.051 0 62.754 13.048 89.404 37.88 17.45-13.363 32.785-30.395 45.662-50.748 3.959-6.247 12.228-8.098 18.483-4.147 6.247 3.959 8.106 12.228 4.147 18.474-17.024 26.897-37.965 48.785-62.25 65.032-5.445 3.635-12.697 2.816-17.195-1.945-23.305-24.712-50.363-37.769-78.25-37.769s-54.938 13.056-78.25 37.769c-4.48 4.762-11.75 5.572-17.195 1.945-64.085-42.906-104.106-125.44-104.457-215.399-0.017-3.567 1.383-6.981 3.9-9.506 2.517-2.517 5.922-3.934 9.48-3.934h238.567c7.399 0 13.389 5.99 13.389 13.38 0.009 7.407-5.99 13.397-13.389 13.397zM89.327 252.305c3.746-2.714 16.512-11.819 23.006-14.515 13.867-5.786 28.809-9.625 45.499-11.708 15.386-21.112 41.993-33.963 71.151-33.963 29.747 0 57.421 13.866 72.482 35.823 13.56 2.133 25.933 5.308 37.649 9.66 7.245 2.679 23.424 12.151 26.599 14.020 3.397 1.997 5.735 5.401 6.4 9.285s-0.418 7.859-2.961 10.871c-6.536 7.766-14.524 18.594-16.009 22.341-3.738 9.421-5.351 43.238-5.299 64.264 0.009 67.055-54.673 121.617-121.882 121.617-67.2 0-121.882-54.562-121.882-121.617 0-0.188 0.008-0.384 0.017-0.572 0.871-20.087 0.734-52.599-2.236-61.952-1.203-3.755-8.994-15.863-15.505-24.823-2.091-2.875-2.961-6.469-2.398-9.976s2.483-6.665 5.367-8.755zM241.553 220.032c-4.079-0.743-8.286-1.135-12.57-1.135-6.203 0-12.262 0.862-17.997 2.415-28.484 10.513-49.553 46.549-49.553 89.387 0 11.529 1.544 22.75 4.591 33.485 9.617-5.863 20.019-10.752 31.036-14.575 16.904-5.871 34.005-8.832 50.825-8.832 16.674 0 32.179 2.986 45.38 8.687 0.93-6.169 1.399-12.45 1.399-18.756 0-44.63-22.835-81.98-53.112-90.675zM127.377 287.727c5.436 17.067 3.9 61.398 3.49 70.929 0.154 52.173 42.761 94.567 95.095 94.567 52.438 0 95.104-42.547 95.104-94.805-0.026-9.302 0.214-56.593 7.185-74.154 1.945-4.898 6.221-11.375 10.479-17.135-3.84-2.074-7.219-3.789-8.926-4.421-10.471-3.891-21.7-6.639-34.099-8.49 7.817 16.367 12.356 35.729 12.356 56.482 0 10.197-1.11 20.335-3.303 30.131-0.461 2.065-1.877 3.798-3.815 4.659-1.928 0.862-4.156 0.751-6.007-0.29-12.8-7.228-29.065-11.042-47.053-11.042-15.317 0-30.942 2.722-46.43 8.098-12.783 4.438-24.653 10.428-35.277 17.801-1.707 1.194-3.857 1.519-5.845 0.887-1.971-0.623-3.559-2.134-4.267-4.088-5.325-14.601-8.022-30.131-8.022-46.157 0-21.418 4.83-41.361 13.115-58.043-14.379 1.784-26.744 4.95-38.528 9.848-1.093 0.461-3.644 1.988-6.793 4.053 4.642 7.040 9.719 15.471 11.537 21.171z" />
<glyph unicode="&#xe625;" d="M485.359 77.688c-1.033 3.158-3.755 5.47-7.040 5.939l-53.222 7.731-23.8 48.222c-1.476 2.986-4.497 4.864-7.825 4.864-3.32 0-6.349-1.886-7.817-4.864l-23.808-48.222-53.222-7.731c-3.286-0.478-6.016-2.782-7.040-5.939s-0.171-6.613 2.21-8.943l38.519-37.529-9.088-53.009c-0.555-3.277 0.785-6.579 3.464-8.534 1.502-1.11 3.311-1.673 5.12-1.673 1.382 0 2.774 0.333 4.053 0.998l47.608 25.037 47.599-25.037c2.944-1.545 6.502-1.28 9.19 0.666 2.68 1.954 4.027 5.257 3.464 8.534l-9.088 53.009 38.519 37.529c2.363 2.329 3.217 5.786 2.202 8.952zM429.175 40.499c-2.048-2.005-2.995-4.889-2.509-7.714l6.878-40.115-36.019 18.944c-2.534 1.331-5.572 1.331-8.115 0l-36.019-18.944 6.878 40.115c0.478 2.825-0.461 5.709-2.509 7.714l-29.142 28.399 40.278 5.863c2.841 0.409 5.291 2.202 6.57 4.779l18.005 36.488 18.014-36.488c1.263-2.577 3.729-4.369 6.562-4.779l40.277-5.863-29.15-28.399zM302.728 19.123h-249.967c3.635 69.93 33.963 133.086 81.425 169.446 26.043-24.26 56.030-37.009 87.339-37.009s61.312 12.749 87.347 37.017c17.041-13.065 32.017-29.696 44.621-49.596 3.865-6.093 11.947-7.919 18.048-4.053 6.11 3.865 7.919 11.947 4.053 18.056-16.64 26.274-37.111 47.659-60.817 63.522-5.317 3.558-12.416 2.748-16.802-1.894-22.776-24.141-49.212-36.898-76.45-36.898s-53.674 12.757-76.45 36.898c-4.386 4.642-11.494 5.453-16.793 1.894-62.609-41.916-101.718-122.547-102.058-210.432-0.017-3.473 1.357-6.818 3.806-9.284 2.457-2.466 5.794-3.849 9.275-3.849h263.416c7.228 0 13.082 5.863 13.082 13.082s-5.854 13.099-13.073 13.099zM85.99 257.562c3.669-2.663 16.128-11.554 22.477-14.2 13.543-5.641 28.143-9.404 44.458-11.434 15.036-20.625 41.037-33.186 69.512-33.186 29.073 0 56.098 13.551 70.81 35.004 13.243 2.082 25.336 5.179 36.796 9.429 7.074 2.629 22.887 11.879 25.984 13.696 3.32 1.954 5.606 5.274 6.247 9.063 0.649 3.789-0.401 7.68-2.885 10.624-6.383 7.586-14.191 18.159-15.642 21.828-3.661 9.208-5.223 42.249-5.18 62.788 0 65.528-53.418 118.827-119.074 118.827s-119.074-53.299-119.074-118.818c0-0.188 0.008-0.375 0.008-0.563 0.853-19.627 0.725-51.379-2.184-60.527-1.169-3.669-8.773-15.496-15.138-24.251-2.040-2.808-2.893-6.315-2.338-9.745 0.529-3.43 2.415-6.502 5.222-8.534zM235.358 226.253c-4.19-0.81-8.49-1.339-12.919-1.339-6.459 0-12.714 1.024-18.654 2.739-27.281 10.769-47.352 45.619-47.352 86.938 0 11.264 1.511 22.229 4.488 32.717 9.395-5.726 19.559-10.505 30.319-14.242 16.529-5.726 33.229-8.636 49.655-8.636 16.281 0 31.437 2.918 44.331 8.49 0.904-6.033 1.365-12.16 1.365-18.329 0.017-43.273-21.974-79.496-51.234-88.337zM123.17 292.147c5.307 16.674 3.806 59.981 3.413 69.299 0.153 50.969 41.77 92.39 92.911 92.39 51.234 0 92.911-41.566 92.911-92.621-0.017-9.088 0.214-55.288 7.023-72.457 1.894-4.787 6.084-11.102 10.231-16.734-3.755-2.022-7.082-3.712-8.721-4.327-10.24-3.789-21.248-6.494-33.391-8.303 7.646 16 12.151 34.893 12.151 55.194 0 9.967-1.084 19.874-3.217 29.44-0.461 2.023-1.834 3.712-3.738 4.548-1.886 0.837-4.062 0.743-5.871-0.281-12.51-7.057-28.399-10.786-45.969-10.786-14.968 0-30.233 2.663-45.363 7.911-12.501 4.335-24.081 10.189-34.466 17.399-1.664 1.161-3.763 1.477-5.709 0.862-1.937-0.615-3.473-2.091-4.165-3.994-5.206-14.267-7.842-29.44-7.842-45.098 0-20.889 4.736-40.329 12.809-56.619-14.012 1.741-26.163 4.77-37.641 9.541-1.067 0.452-3.541 1.945-6.622 3.951 4.531 6.878 9.489 15.121 11.264 20.685z" />
<glyph unicode="&#xe626;" d="M490.078 37.82c-1.015 1.545-2.654 2.568-4.48 2.816-7.825 1.067-13.721 7.825-13.721 15.719 0 7.885 5.897 14.643 13.721 15.71 1.834 0.248 3.464 1.272 4.48 2.825 1.015 1.545 1.305 3.447 0.819 5.223-3.985 14.267-11.579 27.426-21.982 38.033-1.28 1.322-3.106 2.031-4.933 1.911-1.851-0.103-3.55-1.007-4.685-2.466-4.651-6.016-13.773-7.877-20.446-4.019-6.844 3.951-9.736 12.442-6.733 19.746 0.7 1.707 0.623 3.644-0.197 5.291-0.837 1.647-2.329 2.867-4.13 3.328-14.267 3.661-29.611 3.678-43.913 0.017-1.792-0.461-3.303-1.673-4.122-3.328-0.837-1.647-0.904-3.584-0.197-5.291 2.986-7.305 0.086-15.803-6.767-19.746-6.656-3.84-15.786-1.979-20.446 4.036-1.135 1.467-2.841 2.363-4.685 2.466-1.861 0.12-3.644-0.58-4.933-1.911-10.411-10.615-18.014-23.783-21.999-38.067-0.503-1.775-0.197-3.687 0.81-5.223 1.015-1.553 2.654-2.577 4.48-2.825 7.817-1.067 13.713-7.825 13.713-15.71 0-7.894-5.897-14.651-13.713-15.719-1.834-0.248-3.464-1.272-4.471-2.816-1.015-1.553-1.314-3.447-0.819-5.231 3.985-14.276 11.579-27.435 21.974-38.033 1.288-1.314 3.072-2.031 4.933-1.911 1.843 0.111 3.55 1.007 4.685 2.466 4.668 6.016 13.781 7.868 20.454 4.019 6.835-3.951 9.728-12.442 6.733-19.746-0.709-1.707-0.632-3.644 0.188-5.291s2.338-2.867 4.122-3.328c7.134-1.843 14.541-2.765 21.982-2.765 7.399 0 14.771 0.921 21.922 2.739 1.792 0.461 3.303 1.664 4.13 3.32 0.827 1.647 0.896 3.592 0.197 5.299-2.995 7.305-0.094 15.803 6.75 19.746 6.682 3.857 15.795 1.988 20.463-4.036 1.135-1.459 2.833-2.355 4.676-2.457 1.911-0.154 3.652 0.58 4.933 1.903 10.428 10.641 18.022 23.8 22.007 38.075 0.503 1.775 0.214 3.678-0.802 5.231zM464.009 8.183c-8.875 6.682-21.786 7.646-31.582 1.997-10.137-5.846-15.479-17.195-14.097-28.365-8.286-1.382-16.853-1.382-25.096 0.009 1.382 11.17-3.951 22.519-14.072 28.365-9.813 5.666-22.724 4.702-31.591-1.971-5.368 6.494-9.634 13.866-12.578 21.752 10.36 4.403 17.51 14.703 17.51 26.385 0 11.673-7.151 21.982-17.51 26.377 2.952 7.894 7.228 15.274 12.603 21.786 8.875-6.69 21.794-7.646 31.574-1.988 10.137 5.846 15.479 17.195 14.114 28.365 8.277 1.374 16.837 1.374 25.096-0.009-1.399-11.178 3.951-22.528 14.072-28.373 9.805-5.658 22.716-4.711 31.582 1.971 5.376-6.502 9.634-13.866 12.578-21.752-10.368-4.394-17.519-14.703-17.519-26.377 0-11.682 7.159-21.982 17.519-26.385-2.952-7.885-7.219-15.266-12.603-21.786zM405.803 93.901c-20.711 0-37.546-16.845-37.546-37.546s16.845-37.546 37.546-37.546 37.538 16.845 37.538 37.546-16.837 37.546-37.538 37.546zM405.803 27.315c-16.009 0-29.022 13.022-29.022 29.031s13.014 29.031 29.022 29.031 29.022-13.022 29.022-29.031-13.014-29.031-29.022-29.031zM126.344 195.294c25.438-23.697 54.75-36.156 85.334-36.156s59.887 12.459 85.334 36.164c16.649-12.766 31.283-29.022 43.579-48.452 3.781-5.957 11.673-7.731 17.63-3.959 5.965 3.781 7.74 11.673 3.968 17.639-16.264 25.677-36.25 46.55-59.418 62.063-5.18 3.464-12.118 2.688-16.401-1.861-22.264-23.586-48.102-36.053-74.701-36.053-26.615 0-52.446 12.467-74.692 36.053-4.284 4.54-11.222 5.325-16.41 1.861-61.158-40.943-99.362-119.714-99.695-205.577-0.017-3.397 1.331-6.664 3.729-9.071s5.657-3.755 9.063-3.755h257.331c7.065 0 12.783 5.717 12.783 12.783 0 7.057-5.717 12.774-12.783 12.774h-244.207c3.559 68.318 33.195 130.014 79.556 165.547zM79.257 262.673c3.584-2.602 15.761-11.281 21.965-13.867 13.227-5.512 27.486-9.182 43.434-11.179 14.678-20.13 40.072-32.409 67.917-32.409 28.399 0 54.801 13.226 69.162 34.193 12.945 2.031 24.747 5.060 35.951 9.208 6.904 2.577 22.349 11.597 25.387 13.389 3.234 1.911 5.47 5.154 6.101 8.849 0.632 3.712-0.401 7.51-2.816 10.394-6.238 7.407-13.866 17.733-15.283 21.308-3.567 9.002-5.103 41.275-5.051 61.346 0 64.017-52.19 116.096-116.344 116.096-64.137 0-116.326-52.079-116.326-116.087 0-0.179 0-0.367 0.017-0.546 0.819-19.174 0.691-50.202-2.15-59.144-1.144-3.584-8.567-15.13-14.779-23.672-1.997-2.747-2.833-6.178-2.304-9.523 0.537-3.362 2.381-6.358 5.12-8.354zM224.537 231.868c-3.882-0.708-7.893-1.083-11.964-1.083-5.93 0-11.725 0.819-17.212 2.313-27.179 10.053-47.283 44.433-47.283 85.307 0 11.008 1.476 21.726 4.394 31.966 9.165-5.598 19.097-10.265 29.619-13.918 16.145-5.598 32.47-8.431 48.504-8.431 15.915 0 30.72 2.85 43.332 8.295 0.887-5.897 1.331-11.896 1.331-17.912 0-42.607-21.811-78.25-50.722-86.536zM115.576 296.474c5.189 16.29 3.737 58.599 3.353 67.704 0.145 49.792 40.798 90.265 90.761 90.265 50.048 0 90.777-40.61 90.777-90.487-0.017-8.875 0.205-54.008 6.853-70.776 1.851-4.676 5.947-10.854 10.001-16.358-3.67-1.971-6.887-3.61-8.517-4.216-9.993-3.712-20.719-6.332-32.546-8.098 7.45 15.616 11.793 34.099 11.793 53.905 0 9.728-1.058 19.397-3.14 28.757-0.435 1.971-1.784 3.627-3.635 4.446-1.843 0.819-3.968 0.717-5.743-0.273-12.228-6.895-27.759-10.538-44.928-10.538-14.618 0-29.525 2.603-44.314 7.731-12.203 4.241-23.535 9.959-33.647 16.99-1.63 1.135-3.695 1.442-5.581 0.845s-3.379-2.039-4.071-3.899c-5.095-13.935-7.663-28.757-7.663-44.066 0-20.446 4.608-39.466 12.518-55.39-13.73 1.698-25.531 4.719-36.779 9.404-1.041 0.443-3.465 1.903-6.477 3.857 4.412 6.707 9.267 14.763 10.983 20.199z" />
<glyph unicode="&#xe627;" d="M286.899 453.359c52.164 0 94.618-42.334 94.618-94.336-0.034-9.25 0.197-56.303 7.142-73.779 1.928-4.873 6.195-11.315 10.419-17.050-0.239-0.128-0.495-0.256-0.734-0.392-6.494-3.465-8.943-11.546-5.47-18.023 2.389-4.488 6.998-7.048 11.759-7.048 2.116 0 4.267 0.512 6.264 1.578 7.202 3.849 14.72 8.278 15.036 8.457 3.379 1.988 5.717 5.376 6.375 9.242 0.657 3.857-0.418 7.825-2.944 10.829-6.511 7.722-14.455 18.483-15.931 22.221-3.729 9.387-5.325 43.017-5.274 63.94 0 66.722-54.4 121.002-121.259 121.002-7.365 0-13.329-5.957-13.329-13.329 0.009-7.355 5.965-13.312 13.329-13.312zM384.837 211.687c-5.393 3.61-12.621 2.808-17.092-1.92-2.961-3.123-5.974-6.075-8.96-8.755-5.47-4.923-5.913-13.337-0.99-18.808 4.923-5.487 13.337-5.913 18.808-0.998 0.743 0.657 1.476 1.331 2.21 2.014 48.333-37.043 79.224-101.359 82.935-172.587h-2.014c-7.356 0-13.329-5.957-13.329-13.32s5.965-13.329 13.329-13.329h15.71c3.55 0 6.938 1.408 9.438 3.917 2.5 2.517 3.899 5.913 3.882 9.455-0.358 89.514-40.183 171.639-103.928 214.332zM84.105 237.474c3.737-2.714 16.427-11.768 22.904-14.464 13.781-5.743 28.647-9.575 45.278-11.639 15.3-21 41.779-33.792 70.793-33.792 29.602 0 57.122 13.79 72.106 35.644 13.491 2.116 25.796 5.274 37.47 9.608 7.219 2.671 23.313 12.091 26.471 13.952 3.379 1.988 5.709 5.376 6.366 9.242s-0.418 7.825-2.944 10.821c-6.502 7.714-14.438 18.466-15.914 22.229-3.729 9.378-5.342 43.008-5.291 63.932 0 66.722-54.4 121.011-121.258 121.011-66.867 0-121.267-54.28-121.267-121.011 0-0.188 0.008-0.384 0.017-0.572 0.862-19.985 0.725-52.327-2.236-61.645-1.195-3.738-8.943-15.786-15.428-24.696-2.073-2.858-2.936-6.425-2.381-9.915s2.457-6.631 5.317-8.704zM235.554 205.346c-4.054-0.743-8.226-1.127-12.476-1.127-6.186 0-12.228 0.862-17.954 2.406-28.314 10.488-49.263 46.319-49.263 88.926 0 11.478 1.536 22.647 4.574 33.314 9.575-5.846 19.925-10.71 30.865-14.498 16.827-5.837 33.834-8.789 50.56-8.789 16.589 0 32.017 2.97 45.167 8.644 0.921-6.161 1.399-12.408 1.399-18.671 0-44.399-22.733-81.57-52.873-90.206zM121.975 272.691c5.41 16.99 3.882 61.090 3.481 70.579 0.153 51.917 42.538 94.097 94.618 94.097 52.164 0 94.618-42.334 94.618-94.336-0.026-9.25 0.214-56.311 7.151-73.779 1.928-4.872 6.195-11.315 10.428-17.058-3.823-2.056-7.194-3.763-8.892-4.403-10.411-3.857-21.589-6.596-33.928-8.431 7.774 16.273 12.296 35.542 12.296 56.192 0 10.112-1.11 20.19-3.286 29.986-0.461 2.048-1.869 3.771-3.789 4.633s-4.139 0.76-5.99-0.281c-12.731-7.193-28.937-10.991-46.822-10.991-15.232 0-30.771 2.714-46.191 8.055-12.697 4.411-24.499 10.368-35.081 17.707-1.69 1.186-3.84 1.502-5.811 0.887s-3.533-2.125-4.25-4.071c-5.299-14.515-7.995-29.969-7.995-45.926 0-21.308 4.813-41.148 13.056-57.754-14.319 1.775-26.624 4.915-38.34 9.805-1.093 0.461-3.618 1.971-6.75 4.019 4.617 7.014 9.668 15.403 11.477 21.069zM318.021 195.695c-5.401 3.627-12.63 2.808-17.101-1.928-23.211-24.593-50.133-37.589-77.867-37.589h-0.913c-27.733 0-54.656 12.997-77.85 37.589-4.463 4.728-11.699 5.538-17.109 1.928-63.752-42.683-103.578-124.808-103.936-214.315-0.017-3.541 1.383-6.946 3.883-9.455s5.888-3.925 9.438-3.925h185.566c0.307 0 0.614 0 0.913 0h185.575c3.541 0 6.938 1.416 9.438 3.925s3.899 5.913 3.882 9.455c-0.35 89.506-40.175 171.631-103.919 214.315zM223.053-5.351c-0.298 0-0.606 0-0.913 0h-171.879c3.721 71.228 34.611 135.543 82.936 172.587 26.522-24.712 57.063-37.709 88.943-37.709h0.913c31.872 0 62.413 12.988 88.952 37.709 48.325-37.043 79.215-101.359 82.935-172.587h-171.887z" />
<glyph unicode="&#xe628;" d="M359.868 312.141c0 57.276-46.592 103.859-103.868 103.859s-103.868-46.584-103.868-103.859c0-53.418 40.542-97.527 92.467-103.227v-93.807h-46.072c-6.298 0-11.4-5.103-11.4-11.401s5.103-11.401 11.4-11.401h46.072v-48.904c0-6.289 5.103-11.401 11.4-11.401s11.4 5.111 11.4 11.401v48.904h46.072c6.298 0 11.401 5.103 11.401 11.401s-5.103 11.401-11.401 11.401h-46.072v93.807c51.925 5.7 92.467 49.809 92.467 103.228zM174.934 312.141c0 44.689 36.369 81.067 81.066 81.067s81.067-36.377 81.067-81.067c0-44.697-36.369-81.066-81.067-81.066s-81.067 36.369-81.067 81.067z" />
<glyph unicode="&#xe629;" d="M160.529 268.57c17.391-52.181 53.162-83.337 95.702-83.337 42.966 0 78.882 31.582 96.068 84.497 1.015 3.149 2.568 5.376 4.702 8.474 6.75 9.771 12.348 19.798 12.348 43.742 0 93.935-58.641 136.721-113.118 136.721-56.969 0-114.432-42.283-114.432-136.713 0-25.899 7.51-36.215 13.542-44.51 2.381-3.286 4.113-5.657 5.189-8.875zM344.303 321.954c0-18.074-3.661-23.373-7.902-29.508-2.697-3.909-5.76-8.337-7.928-14.968-13.662-42.078-40.678-67.192-72.243-67.192-31.232 0-58.12 24.746-71.953 66.202-2.304 6.904-5.701 11.563-8.696 15.693-4.694 6.451-8.738 12.015-8.738 29.773 0 5.947 0.29 11.631 0.81 17.084 1.246-0.409 2.492-0.827 3.626-1.212 5.512-1.869 10.291-3.481 13.798-3.481 5.418 0 7.254 3.712 7.672 4.83 1.861 4.847 2.006 9.993 2.142 14.541 0.256 8.738 0.751 11.707 5.786 13.44 3.865 1.339 7.33 1.988 10.582 1.988 7.185 0 12.467-3.285 18.594-7.082 7.006-4.344 14.942-9.267 26.394-9.267 12.041 0 20.548 4.429 28.058 8.329 6.647 3.447 12.382 6.434 20.087 6.434 2.509 0 5.086-0.307 7.868-0.938 3.815-0.862 4.693-3.047 5.154-13.031 0.222-4.702 0.452-9.566 2.168-14.012 0.443-1.126 2.27-4.787 7.552-4.787 3.43 0 8.005 1.664 13.312 3.61 0.904 0.333 1.954 0.708 3.012 1.083 0.529-5.589 0.845-11.417 0.845-17.527zM256.231 433.613c37.623 0 75.529-25.481 85.512-81.493-1.826-0.606-3.678-1.263-5.598-1.954-1.724-0.632-3.925-1.442-5.786-2.031-0.239 1.886-0.325 3.985-0.426 6.041-0.401 8.559-0.998 21.512-14.899 24.661-3.652 0.828-7.228 1.246-10.632 1.246-10.769 0-18.44-3.985-25.865-7.842-6.844-3.55-13.312-6.912-22.281-6.912-7.885 0-13.398 3.422-19.789 7.39-6.767 4.19-14.439 8.96-25.19 8.96-4.667 0-9.464-0.879-14.678-2.671-13.619-4.71-13.96-16.392-14.208-24.926-0.069-2.296-0.137-4.514-0.401-6.545-2.082 0.597-4.694 1.485-6.681 2.159-2.040 0.691-4.028 1.331-5.947 1.937 9.976 56.362 48.554 81.979 86.87 81.979zM345.694 203.341c-5.086 3.405-11.887 2.654-16.086-1.809-21.794-23.117-47.104-35.337-73.19-35.337h-0.845c-26.087 0-51.388 12.219-73.182 35.337-4.207 4.454-11.017 5.214-16.077 1.809-59.929-40.123-97.365-117.317-97.698-201.438-0.017-3.337 1.297-6.528 3.653-8.883s5.538-3.687 8.874-3.687h174.43c0.29 0 0.555 0 0.845 0h174.43c3.337 0 6.528 1.322 8.883 3.687 2.338 2.355 3.661 5.546 3.652 8.883-0.333 84.121-37.769 161.314-97.69 201.438zM256.418 14.378c-0.281 0-0.546 0-0.845 0h-161.561c3.49 66.944 32.529 127.402 77.952 162.219 24.935-23.228 53.641-35.43 83.618-35.43h0.845c29.986 0 58.692 12.211 83.618 35.43 45.431-34.816 74.471-95.274 77.952-162.219h-161.579z" />
<glyph unicode="&#xe62a;" d="M480.512 109.099l-35.865 35.857c-2.603 2.603-6.81 2.603-9.413 0l-104.098-104.098c-0.145-0.145-0.256-0.307-0.375-0.461-0.12-0.145-0.231-0.256-0.333-0.401-0.264-0.375-0.495-0.768-0.674-1.195-0.017-0.034-0.043-0.060-0.060-0.094l-25.634-61.5c-1.041-2.491-0.478-5.359 1.433-7.271 1.272-1.263 2.969-1.937 4.711-1.937 0.862 0 1.733 0.171 2.56 0.512l61.5 25.642c0.734 0.298 1.357 0.776 1.937 1.288 0.060 0.068 0.154 0.086 0.205 0.154l104.106 104.098c1.246 1.246 1.954 2.944 1.954 4.702-0.009 1.758-0.709 3.456-1.954 4.702zM439.945 130.85l8.465-8.474-94.114-94.106c-0.197-0.214-0.29-0.478-0.469-0.7l-8.584 8.584 94.703 94.695zM322.56-12.979l15.599 37.41 21.811-21.82-37.41-15.591zM371.704 9.702l-8.695 8.704c0.214 0.179 0.495 0.248 0.691 0.461l94.123 94.106 8.567-8.576-94.686-94.695zM276.992 7.834h-220.458c3.695 71.151 34.552 135.39 82.825 172.391 26.496-24.687 57.019-37.658 88.866-37.658 31.838 0 62.344 12.971 88.841 37.64 18.245-14.038 34.568-32.529 47.608-53.999 3.806-6.281 11.998-8.286 18.287-4.463s8.286 11.998 4.463 18.287c-17.101 28.168-39.347 51.891-64.35 68.634-5.401 3.618-12.621 2.799-17.084-1.937-23.168-24.559-50.065-37.538-77.764-37.538-27.716 0-54.613 12.979-77.781 37.538-4.454 4.736-11.69 5.546-17.084 1.937-63.693-42.658-103.475-124.68-103.817-214.093-0.017-3.533 1.383-6.929 3.883-9.438 2.492-2.509 5.88-3.917 9.421-3.917h234.146c7.347 0 13.312 5.957 13.312 13.312s-5.965 13.303-13.312 13.303zM127.207 277.982c18.5-55.458 56.517-88.567 101.718-88.567 45.662 0 83.823 33.579 102.093 89.805 1.084 3.345 2.722 5.718 5 9.002 7.176 10.385 13.107 21.043 13.107 46.472 0 99.84-62.31 145.306-120.201 145.306-60.535 0-121.617-44.928-121.617-145.297 0-27.512 7.987-38.477 14.395-47.283 2.543-3.499 4.361-6.007 5.504-9.438zM322.509 334.703c0-19.2-3.891-24.823-8.389-31.343-2.875-4.155-6.127-8.866-8.414-15.914-14.524-44.706-43.221-71.399-76.774-71.399-33.186 0-61.773 26.299-76.467 70.349-2.432 7.33-6.050 12.296-9.233 16.683-4.992 6.861-9.302 12.774-9.302 31.625 0 6.34 0.315 12.373 0.862 18.168 1.339-0.435 2.662-0.879 3.865-1.28 5.863-1.979 10.931-3.703 14.661-3.703 5.76 0 7.706 3.934 8.158 5.129 1.98 5.162 2.142 10.641 2.287 15.462 0.264 9.284 0.81 12.45 6.127 14.285 4.121 1.417 7.799 2.117 11.256 2.117 7.629 0 13.252-3.49 19.755-7.535 7.45-4.608 15.881-9.839 28.058-9.839 12.792 0 21.828 4.693 29.807 8.84 7.065 3.67 13.167 6.835 21.359 6.835 2.663 0 5.393-0.324 8.354-0.99 4.070-0.921 4.983-3.251 5.478-13.85 0.231-5 0.478-10.171 2.313-14.899 0.461-1.195 2.398-5.077 8.013-5.077 3.652 0 8.517 1.775 14.139 3.832 0.964 0.35 2.065 0.751 3.192 1.152 0.572-5.947 0.896-12.143 0.896-18.645zM228.923 453.385c39.995 0 80.256-27.077 90.863-86.605-1.937-0.631-3.899-1.331-5.939-2.082-1.826-0.665-4.182-1.527-6.152-2.159-0.248 2.005-0.358 4.233-0.452 6.417-0.426 9.105-1.067 22.878-15.838 26.206-3.882 0.887-7.68 1.323-11.289 1.323-11.452 0-19.61-4.233-27.494-8.337-7.279-3.772-14.131-7.339-23.672-7.339-8.371 0-14.242 3.635-21.043 7.851-7.202 4.454-15.351 9.523-26.778 9.523-4.958 0-10.061-0.93-15.59-2.841-14.472-5-14.831-17.417-15.104-26.479-0.069-2.449-0.137-4.804-0.427-6.963-2.21 0.632-4.983 1.579-7.1 2.296-2.176 0.734-4.275 1.425-6.323 2.048 10.624 59.896 51.626 87.142 92.339 87.142z" />
<glyph unicode="&#xe62b;" d="M487.142 77.517c-1.024 3.149-3.746 5.453-7.023 5.922l-53.137 7.723-23.765 48.145c-1.467 2.978-4.48 4.856-7.8 4.856s-6.341-1.886-7.808-4.856l-23.765-48.145-53.146-7.723c-3.277-0.478-5.999-2.774-7.023-5.922-1.024-3.158-0.179-6.613 2.202-8.926l38.451-37.487-9.071-52.923c-0.555-3.269 0.785-6.57 3.464-8.517 1.519-1.101 3.32-1.664 5.12-1.664 1.382 0 2.782 0.333 4.053 0.998l47.531 25.002 47.514-25.002c2.927-1.536 6.486-1.28 9.165 0.666s4.027 5.248 3.464 8.517l-9.071 52.923 38.451 37.487c2.363 2.313 3.217 5.769 2.193 8.926zM431.062 40.38c-2.048-1.997-2.986-4.881-2.509-7.705l6.87-40.038-35.951 18.91c-2.534 1.339-5.563 1.339-8.106 0l-35.959-18.91 6.87 40.038c0.478 2.825-0.461 5.709-2.509 7.705l-29.090 28.356 40.209 5.854c2.841 0.409 5.291 2.193 6.562 4.77l17.979 36.429 17.98-36.429c1.263-2.577 3.721-4.361 6.553-4.77l40.2-5.854-29.099-28.356zM298.428 16.64h-247.51c3.635 69.82 33.92 132.864 81.28 169.173 26.010-24.226 55.953-36.958 87.202-36.958s61.193 12.731 87.194 36.95c17.92-13.781 33.937-31.923 46.728-53 3.738-6.17 11.784-8.132 17.945-4.386 6.161 3.738 8.123 11.776 4.386 17.945-16.76 27.623-38.596 50.918-63.138 67.353-5.308 3.55-12.39 2.748-16.776-1.894-22.733-24.098-49.126-36.839-76.322-36.839s-53.581 12.74-76.314 36.839c-4.386 4.642-11.477 5.445-16.768 1.894-62.507-41.847-101.546-122.351-101.879-210.082-0.017-3.473 1.357-6.81 3.806-9.267 2.449-2.466 5.777-3.849 9.25-3.849h260.933c7.219 0 13.056 5.854 13.056 13.065s-5.863 13.056-13.073 13.056zM120.286 281.754c18.15-54.417 55.458-86.912 99.798-86.912 44.834 0 82.296 32.939 100.199 88.124 1.067 3.285 2.68 5.615 4.906 8.832 7.040 10.189 12.868 20.659 12.868 45.619 0 97.963-61.15 142.584-117.974 142.584-59.4 0-119.33-44.083-119.33-142.584 0-27.008 7.834-37.769 14.114-46.413 2.501-3.422 4.293-5.905 5.418-9.25zM311.936 337.417c0-18.841-3.815-24.363-8.235-30.763-2.816-4.079-6.007-8.695-8.26-15.607-14.242-43.887-42.411-70.076-75.358-70.076-32.546 0-60.613 25.805-75.025 69.043-2.389 7.193-5.939 12.066-9.063 16.358-4.898 6.733-9.122 12.544-9.122 31.053 0 6.221 0.316 12.135 0.853 17.826 1.306-0.426 2.611-0.862 3.781-1.254 5.76-1.954 10.735-3.635 14.395-3.635 5.649 0 7.56 3.857 8.005 5.035 1.946 5.069 2.099 10.436 2.236 15.155 0.264 9.122 0.793 12.228 6.033 14.038 4.036 1.391 7.646 2.073 11.034 2.073 7.483 0 12.996-3.413 19.379-7.382 7.304-4.531 15.59-9.668 27.546-9.668 12.553 0 21.427 4.608 29.252 8.679 6.929 3.609 12.919 6.707 20.958 6.707 2.611 0 5.291-0.315 8.2-0.973 3.993-0.896 4.889-3.192 5.385-13.594 0.222-4.906 0.461-9.984 2.262-14.618 0.452-1.178 2.355-4.983 7.868-4.983 3.584 0 8.354 1.741 13.875 3.763 0.947 0.341 2.031 0.734 3.14 1.127 0.546-5.845 0.862-11.921 0.862-18.304zM220.083 453.88c39.254 0 78.771-26.573 89.182-84.992-1.894-0.632-3.832-1.314-5.837-2.048-1.792-0.649-4.096-1.493-6.024-2.117-0.248 1.971-0.35 4.156-0.452 6.298-0.418 8.935-1.041 22.442-15.539 25.728-3.806 0.862-7.535 1.297-11.085 1.297-11.23 0-19.243-4.155-26.983-8.183-7.134-3.712-13.867-7.21-23.227-7.21-8.226 0-13.994 3.575-20.659 7.705-7.057 4.386-15.070 9.344-26.266 9.344-4.864 0-9.864-0.904-15.3-2.791-14.208-4.898-14.566-17.083-14.822-25.992-0.069-2.389-0.137-4.711-0.418-6.818-2.176 0.615-4.889 1.545-6.971 2.253-2.133 0.726-4.19 1.391-6.203 2.006 10.428 58.794 50.654 85.521 90.607 85.521z" />
<glyph unicode="&#xe62c;" d="M479.087 35.772c-0.981 1.502-2.568 2.5-4.344 2.739-7.603 1.033-13.329 7.594-13.329 15.249s5.735 14.216 13.329 15.249c1.775 0.248 3.362 1.246 4.352 2.739 0.973 1.502 1.263 3.353 0.785 5.077-3.857 13.841-11.23 26.607-21.325 36.915-1.246 1.28-2.952 1.979-4.796 1.861-1.784-0.103-3.447-0.973-4.539-2.389-4.522-5.837-13.38-7.646-19.849-3.909-6.639 3.832-9.447 12.083-6.545 19.183 0.683 1.656 0.606 3.533-0.197 5.146-0.802 1.604-2.27 2.774-4.002 3.226-13.918 3.55-28.714 3.55-42.624 0.009-1.741-0.443-3.2-1.613-4.010-3.226-0.81-1.604-0.887-3.473-0.197-5.146 2.901-7.091 0.086-15.334-6.57-19.166-6.477-3.738-15.317-1.937-19.849 3.917-1.101 1.416-2.757 2.287-4.539 2.381-1.767 0.111-3.541-0.563-4.796-1.851-10.103-10.317-17.493-23.082-21.359-36.95-0.486-1.724-0.188-3.575 0.793-5.069 0.981-1.502 2.568-2.5 4.344-2.748 7.594-1.033 13.329-7.594 13.329-15.249s-5.726-14.216-13.32-15.249c-1.784-0.239-3.37-1.246-4.352-2.739s-1.272-3.345-0.802-5.077c3.874-13.866 11.247-26.632 21.342-36.915 1.255-1.28 2.978-1.954 4.796-1.851 1.784 0.103 3.439 0.973 4.539 2.389 4.522 5.846 13.372 7.629 19.857 3.891 6.639-3.832 9.447-12.066 6.536-19.166-0.683-1.664-0.606-3.533 0.197-5.146 0.802-1.604 2.262-2.782 4.002-3.226 6.929-1.775 14.114-2.671 21.342-2.671 7.168 0 14.336 0.896 21.274 2.663 1.741 0.443 3.209 1.613 4.010 3.226 0.819 1.604 0.887 3.473 0.205 5.146-2.91 7.099-0.094 15.343 6.553 19.175 6.486 3.738 15.326 1.937 19.857-3.917 1.101-1.416 2.757-2.296 4.548-2.389 1.775-0.137 3.533 0.563 4.787 1.851 10.12 10.317 17.502 23.099 21.368 36.958 0.469 1.724 0.179 3.575-0.802 5.060zM453.786 7.014c-8.61 6.486-21.146 7.433-30.669 1.937-9.822-5.675-15.019-16.691-13.688-27.537-8.047-1.339-16.341-1.339-24.363 0 1.349 10.846-3.832 21.871-13.662 27.546-9.523 5.504-22.058 4.565-30.669-1.911-5.214 6.298-9.353 13.449-12.211 21.111 10.061 4.267 16.998 14.267 16.998 25.608 0 11.332-6.938 21.334-16.998 25.608 2.867 7.654 7.006 14.822 12.237 21.146 8.618-6.486 21.154-7.416 30.651-1.937 9.83 5.675 15.036 16.691 13.696 27.537 8.038 1.339 16.325 1.349 24.363 0-1.339-10.846 3.84-21.871 13.671-27.554 9.506-5.495 22.050-4.565 30.661 1.92 5.214-6.306 9.353-13.457 12.211-21.111-10.061-4.275-17.007-14.276-17.007-25.608 0-11.341 6.946-21.342 17.007-25.608-2.858-7.663-6.998-14.822-12.228-21.145zM397.286 90.214c-20.096 0-36.454-16.35-36.454-36.446s16.358-36.446 36.454-36.446c20.087 0 36.446 16.35 36.446 36.446s-16.358 36.446-36.446 36.446zM397.286 25.583c-15.539 0-28.185 12.638-28.185 28.185s12.638 28.185 28.185 28.185c15.531 0 28.168-12.638 28.168-28.185s-12.638-28.185-28.168-28.185zM292.164 39.834h-235.102c3.431 66.313 32.197 126.208 77.21 160.7 24.704-23.006 53.154-35.097 82.833-35.097s58.129 12.091 82.833 35.089c17.015-13.090 32.231-30.327 44.382-50.338 3.558-5.863 11.195-7.723 17.041-4.164 5.863 3.558 7.723 11.187 4.164 17.041-15.932 26.248-36.676 48.367-59.981 63.975-5.026 3.379-11.767 2.629-15.923-1.792-21.615-22.895-46.686-35.003-72.517-35.003s-50.901 12.109-72.499 35.004c-4.155 4.411-10.897 5.171-15.931 1.8-59.383-39.766-96.469-116.232-96.785-199.578-0.009-3.303 1.288-6.469 3.627-8.798 2.321-2.338 5.487-3.652 8.781-3.652h247.868c6.853 0 12.408 5.546 12.408 12.408 0 6.853-5.555 12.408-12.408 12.408zM122.939 291.669c17.237-51.695 52.676-82.56 94.806-82.56 42.582 0 78.166 31.3 95.181 83.712 1.007 3.115 2.543 5.333 4.659 8.397 6.69 9.677 12.237 19.618 12.237 43.333 0 93.064-58.095 135.449-112.069 135.449-56.422 0-113.357-41.881-113.357-135.449 0-25.66 7.441-35.883 13.415-44.101 2.364-3.251 4.070-5.598 5.129-8.781zM217.754 455.185c37.282 0 74.838-25.242 84.727-80.734-1.8-0.598-3.644-1.246-5.538-1.954-1.707-0.615-3.899-1.416-5.735-2.005-0.231 1.877-0.333 3.951-0.426 5.982-0.392 8.49-0.981 21.325-14.754 24.431-3.618 0.828-7.159 1.238-10.53 1.238-10.666 0-18.27-3.951-25.625-7.765-6.775-3.525-13.175-6.844-22.076-6.844-7.816 0-13.286 3.379-19.618 7.313-6.707 4.156-14.31 8.875-24.952 8.875-4.625 0-9.387-0.87-14.541-2.654-13.5-4.659-13.841-16.231-14.080-24.696-0.069-2.278-0.128-4.471-0.393-6.486-2.065 0.589-4.65 1.468-6.622 2.142-2.023 0.683-3.985 1.322-5.888 1.911 9.881 55.85 48.094 81.246 86.050 81.246zM130.006 361.481c1.246-0.409 2.475-0.819 3.584-1.203 5.478-1.852 10.197-3.448 13.679-3.448 5.368 0 7.185 3.67 7.62 4.787 1.834 4.805 1.98 9.907 2.107 14.404 0.256 8.67 0.76 11.614 5.734 13.329 3.84 1.314 7.27 1.962 10.488 1.962 7.108 0 12.347-3.251 18.415-7.006 6.929-4.31 14.797-9.182 26.146-9.182 11.921 0 20.361 4.377 27.793 8.243 6.588 3.413 12.271 6.366 19.909 6.366 2.483 0 5.034-0.299 7.8-0.922 3.781-0.862 4.642-3.021 5.103-12.902 0.214-4.668 0.435-9.489 2.142-13.901 0.435-1.11 2.245-4.728 7.475-4.728 3.397 0 7.936 1.647 13.184 3.567 0.904 0.333 1.937 0.709 2.995 1.075 0.529-5.538 0.837-11.306 0.837-17.374 0-17.911-3.627-23.151-7.825-29.226-2.671-3.874-5.709-8.26-7.851-14.831-13.534-41.685-40.294-66.568-71.586-66.568-30.934 0-57.575 24.525-71.27 65.596-2.287 6.835-5.641 11.461-8.619 15.53-4.65 6.392-8.67 11.913-8.67 29.5 0.008 5.897 0.307 11.529 0.81 16.93z" />
<glyph unicode="&#xe62d;" d="M458.906 77.15h-2.5v4.019c0 31.574-25.685 57.259-57.25 57.259s-57.25-25.685-57.25-57.259v-4.019h-2.491c-6.938 0-12.578-5.632-12.578-12.578v-84.002c0-6.946 5.632-12.578 12.578-12.578h119.493c6.938 0 12.57 5.623 12.57 12.578v84.002c0 6.946-5.623 12.578-12.57 12.578zM367.062 81.169c0 17.707 14.404 32.111 32.103 32.111s32.103-14.404 32.103-32.111v-4.019h-64.197v4.019zM446.327-6.853h-94.336v58.846h94.336v-58.846zM304.325 33.869h-238.302c3.481 67.217 32.632 127.914 78.259 162.885 25.029-23.322 53.863-35.584 83.959-35.584 30.080 0 58.914 12.262 83.951 35.575 17.246-13.269 32.657-30.737 44.979-51.021 3.601-5.93 11.341-7.825 17.272-4.224 5.939 3.61 7.825 11.341 4.224 17.272-16.162 26.607-37.18 49.032-60.8 64.853-5.12 3.405-11.93 2.654-16.154-1.826-21.888-23.202-47.3-35.473-73.481-35.473-26.189 0-51.601 12.271-73.481 35.473-4.215 4.471-11.050 5.231-16.154 1.826-60.177-40.312-97.766-117.82-98.073-202.283-0.017-3.345 1.297-6.562 3.669-8.926 2.346-2.363 5.555-3.704 8.901-3.704h251.23c6.946 0 12.578 5.623 12.578 12.578s-5.623 12.578-12.578 12.578zM132.804 289.118c17.468-52.394 53.385-83.678 96.094-83.678 43.153 0 79.215 31.719 96.478 84.847 1.024 3.157 2.577 5.401 4.719 8.499 6.784 9.814 12.399 19.891 12.399 43.921 0 94.336-58.889 137.293-113.596 137.293-57.19 0-114.901-42.454-114.901-137.285 0-26.010 7.543-36.369 13.594-44.689 2.398-3.294 4.138-5.674 5.214-8.909zM317.337 342.716c0-18.142-3.678-23.458-7.928-29.628-2.714-3.925-5.794-8.362-7.953-15.035-13.721-42.24-40.849-67.465-72.559-67.465-31.36 0-58.359 24.849-72.243 66.483-2.304 6.929-5.718 11.606-8.721 15.752-4.719 6.477-8.781 12.066-8.781 29.892 0 5.982 0.29 11.682 0.81 17.161 1.263-0.409 2.518-0.827 3.653-1.212 5.538-1.877 10.334-3.499 13.85-3.499 5.453 0 7.287 3.721 7.714 4.839 1.869 4.881 2.014 10.053 2.142 14.609 0.256 8.773 0.76 11.759 5.811 13.5 3.882 1.34 7.364 1.997 10.632 1.997 7.202 0 12.518-3.294 18.671-7.108 7.031-4.369 15.010-9.31 26.496-9.31 12.083 0 20.625 4.446 28.169 8.354 6.673 3.473 12.433 6.469 20.182 6.469 2.517 0 5.103-0.307 7.902-0.939 3.832-0.87 4.711-3.063 5.171-13.073 0.214-4.736 0.443-9.617 2.176-14.089 0.435-1.127 2.27-4.796 7.577-4.796 3.456 0 8.047 1.673 13.372 3.627 0.904 0.333 1.954 0.709 3.021 1.084 0.521-5.624 0.837-11.469 0.837-17.613zM228.898 454.853c37.794 0 75.845-25.583 85.862-81.826-1.826-0.606-3.687-1.263-5.606-1.971-1.733-0.632-3.959-1.442-5.82-2.040-0.231 1.903-0.333 4.011-0.435 6.076-0.401 8.601-0.998 21.598-14.959 24.755-3.67 0.827-7.262 1.246-10.675 1.246-10.82 0-18.534-4.002-25.984-7.876-6.869-3.576-13.346-6.938-22.366-6.938-7.919 0-13.448 3.439-19.874 7.415-6.792 4.216-14.506 9.002-25.293 9.002-4.685 0-9.506-0.887-14.745-2.68-13.679-4.727-14.020-16.461-14.268-25.037-0.060-2.304-0.128-4.531-0.401-6.57-2.090 0.597-4.71 1.493-6.707 2.168-2.056 0.699-4.045 1.348-5.974 1.945 10.035 56.593 48.776 82.329 87.245 82.329zM395.699 26.974l-3.37-18.014h14.635l-3.379 17.979c3.175 1.485 5.385 4.685 5.385 8.414 0 5.12-4.164 9.284-9.284 9.284-5.137 0-9.301-4.164-9.301-9.284-0.009-3.704 2.176-6.878 5.317-8.38zM399.675 36.258c0.503 0 0.896-0.401 0.896-0.896 0-1.033-1.817-1.015-1.817 0 0 0.486 0.401 0.896 0.921 0.896z" />
<glyph unicode="&#xe62e;" d="M490.666 224.008c0 129.382-105.276 234.658-234.658 234.658-129.391 0-234.675-105.276-234.675-234.658 0-66.902 28.186-127.301 73.25-170.086 0.725-0.913 1.561-1.733 2.534-2.423 41.831-38.562 97.647-62.166 158.891-62.166 62.191 0 118.75 24.354 160.793 63.983 0.998 0.709 1.869 1.553 2.603 2.483 43.896 42.675 71.262 102.281 71.262 168.209zM46.66 224.008c0 115.422 93.918 209.331 209.349 209.331s209.331-93.909 209.331-209.331c0-53.248-20.010-101.879-52.864-138.871-16.743 29.372-38.742 53.7-64.426 70.895-5.146 3.447-12.007 2.663-16.256-1.834-22.024-23.356-47.608-35.712-73.959-35.712h-0.87c-26.368 0-51.951 12.348-73.984 35.712-4.241 4.497-11.119 5.282-16.248 1.834-26.282-17.587-48.657-42.582-65.528-72.815-33.869 37.206-54.545 86.622-54.545 140.792zM120.115 64.938c13.491 26.043 31.335 47.923 52.335 64.043 25.199-23.475 54.221-35.815 84.514-35.815h0.87c30.293 0 59.306 12.339 84.497 35.815 20.531-15.761 38.075-37.069 51.464-62.387-36.847-32.307-85.051-51.942-137.787-51.942-51.832 0.009-99.286 18.978-135.893 50.287zM160.887 221.961c17.587-52.745 53.743-84.241 96.734-84.241 43.435 0 79.744 31.932 97.126 85.427 1.033 3.174 2.586 5.435 4.745 8.559 6.827 9.873 12.476 20.028 12.476 44.229 0 94.95-59.264 138.197-114.338 138.197-57.583 0-115.686-42.735-115.686-138.197 0-26.189 7.595-36.625 13.696-44.997 2.406-3.337 4.165-5.726 5.248-8.977zM346.641 275.925c0-18.287-3.695-23.637-7.987-29.841-2.722-3.942-5.811-8.414-7.995-15.113-13.815-42.53-41.122-67.925-73.046-67.925-31.556 0-58.752 25.019-72.713 66.935-2.321 6.971-5.777 11.682-8.798 15.846-4.753 6.528-8.849 12.151-8.849 30.097 0 6.016 0.298 11.75 0.827 17.263 1.272-0.409 2.535-0.837 3.686-1.221 5.572-1.894 10.402-3.524 13.944-3.524v0c5.478 0 7.33 3.738 7.757 4.873 1.894 4.915 2.040 10.12 2.167 14.72 0.256 8.832 0.768 11.835 5.828 13.577 3.917 1.349 7.424 2.014 10.709 2.014 7.262 0 12.613-3.32 18.799-7.16 7.083-4.394 15.104-9.369 26.675-9.369 12.177 0 20.779 4.471 28.365 8.414 6.716 3.482 12.519 6.511 20.31 6.511 2.534 0 5.137-0.316 7.953-0.947 3.874-0.879 4.753-3.089 5.214-13.184 0.222-4.753 0.452-9.677 2.202-14.174 0.435-1.135 2.287-4.821 7.62-4.821 3.473 0 8.098 1.69 13.457 3.643 0.913 0.341 1.962 0.717 3.021 1.101 0.546-5.649 0.853-11.529 0.853-17.715zM257.622 388.796c38.033 0 76.339-25.762 86.434-82.373-1.834-0.615-3.712-1.272-5.649-1.98-1.733-0.631-3.976-1.459-5.846-2.056-0.239 1.911-0.341 4.027-0.435 6.101-0.401 8.67-1.007 21.76-15.079 24.943-3.695 0.845-7.296 1.263-10.743 1.263-10.872 0-18.646-4.036-26.146-7.936-6.912-3.593-13.44-6.989-22.528-6.989-7.97 0-13.542 3.456-20.002 7.466-6.852 4.241-14.609 9.063-25.472 9.063-4.719 0-9.566-0.887-14.831-2.697-13.756-4.753-14.097-16.554-14.353-25.182-0.077-2.313-0.137-4.574-0.41-6.613-2.099 0.597-4.736 1.485-6.742 2.176-2.082 0.7-4.088 1.357-6.042 1.954 10.112 56.96 49.118 82.858 87.842 82.858z" />
<glyph unicode="&#xe62f;" d="M289.733 453.291c46.737 0 93.901-36.813 93.901-119.065 0-19.26-3.899-24.909-8.414-31.446-2.885-4.173-6.152-8.909-8.44-15.975-8.32-25.625-21.385-45.713-37.794-58.12-5.888-4.446-7.048-12.826-2.611-18.705 2.628-3.464 6.622-5.299 10.666-5.299 2.799 0 5.632 0.879 8.038 2.697 20.796 15.719 37.077 40.328 47.104 71.194 1.084 3.353 2.731 5.734 5 9.029 7.202 10.419 13.159 21.12 13.159 46.626 0 100.156-62.524 145.775-120.61 145.775-7.382 0-13.354-5.973-13.354-13.346 0-7.39 5.974-13.363 13.354-13.363zM385.118 207.769c-5.41 3.627-12.655 2.816-17.135-1.928-3.098-3.286-6.264-6.366-9.413-9.165-5.512-4.906-5.99-13.337-1.092-18.85 4.906-5.512 13.346-5.982 18.85-1.092 0.913 0.819 1.843 1.656 2.757 2.509 48.435-37.12 79.394-101.572 83.106-172.962h-6.417c-7.382 0-13.354-5.982-13.354-13.354s5.974-13.346 13.354-13.346h20.139c3.55 0 6.946 1.408 9.455 3.925s3.909 5.93 3.891 9.481c-0.333 89.694-40.243 172.007-104.141 214.784zM120.721 265.745c18.56-55.646 56.704-88.858 102.041-88.858 45.807 0 84.096 33.681 102.442 90.112 1.084 3.353 2.731 5.734 5.009 9.029 7.202 10.419 13.159 21.12 13.159 46.643 0 100.147-62.524 145.767-120.61 145.767-60.731 0-122.010-45.073-122.010-145.767 0-27.623 8.005-38.622 14.43-47.463 2.56-3.515 4.403-6.041 5.538-9.463zM316.663 322.663c0-19.277-3.899-24.926-8.414-31.463-2.885-4.165-6.144-8.892-8.44-15.958-14.584-44.868-43.383-71.646-77.039-71.646-33.288 0-61.969 26.393-76.706 70.587-2.449 7.347-6.067 12.331-9.267 16.717-5.009 6.887-9.335 12.825-9.335 31.761 0 6.349 0.316 12.399 0.87 18.218 1.339-0.443 2.662-0.887 3.865-1.288 5.888-1.988 10.974-3.72 14.72-3.72 5.786 0 7.731 3.951 8.192 5.154 1.98 5.171 2.133 10.666 2.279 15.505 0.264 9.327 0.81 12.493 6.161 14.344 4.13 1.425 7.816 2.117 11.281 2.117 7.655 0 13.303-3.498 19.823-7.552 7.475-4.625 15.941-9.873 28.151-9.873 12.843 0 21.905 4.71 29.918 8.866 7.083 3.687 13.21 6.87 21.436 6.87 2.663 0 5.41-0.325 8.371-0.999 4.087-0.921 5-3.269 5.504-13.892 0.231-5.017 0.469-10.214 2.313-14.968 0.461-1.194 2.398-5.086 8.030-5.086 3.67 0 8.55 1.784 14.2 3.84 0.964 0.358 2.074 0.76 3.2 1.161 0.563-5.965 0.887-12.177 0.887-18.697zM222.762 441.719c40.123 0 80.537-27.17 91.178-86.887-1.937-0.648-3.909-1.348-5.957-2.090-1.834-0.674-4.199-1.545-6.178-2.176-0.248 2.014-0.358 4.258-0.461 6.451-0.426 9.13-1.058 22.938-15.88 26.3-3.891 0.887-7.697 1.322-11.324 1.322-11.486 0-19.678-4.258-27.589-8.363-7.287-3.789-14.183-7.364-23.757-7.364-8.405 0-14.293 3.652-21.112 7.876-7.227 4.48-15.411 9.549-26.863 9.549-4.975 0-10.087-0.93-15.642-2.85-14.524-5.017-14.882-17.476-15.138-26.573-0.077-2.449-0.145-4.804-0.435-6.971-2.219 0.632-5 1.587-7.125 2.304-2.185 0.743-4.292 1.425-6.34 2.065 10.641 60.083 51.772 87.407 92.621 87.407zM318.149 196.19c-5.427 3.635-12.655 2.808-17.135-1.937-23.262-24.644-50.245-37.666-78.046-37.666h-0.913c-27.802 0-54.784 13.022-78.029 37.666-4.471 4.745-11.716 5.563-17.144 1.937-63.88-42.769-103.799-125.065-104.158-214.784-0.017-3.55 1.383-6.954 3.891-9.472s5.913-3.934 9.464-3.934h185.984c0.307 0 0.614 0 0.913 0h185.993c3.55 0 6.954 1.416 9.464 3.934 2.5 2.517 3.899 5.922 3.882 9.472-0.358 89.719-40.269 172.015-104.166 214.784zM222.976-5.291c-0.298-0.009-0.606-0.009-0.913 0h-172.262c3.729 71.39 34.679 135.851 83.115 172.962 26.582-24.764 57.19-37.786 89.139-37.786h0.913c31.949 0 62.567 13.014 89.147 37.794 48.426-37.12 79.394-101.572 83.115-172.971h-172.254z" />
<glyph unicode="&#xe630;" d="M426.411 384.427c-0.077 0.375-0.214 0.717-0.315 1.083-0.137 0.435-0.231 0.87-0.401 1.288-0.179 0.444-0.435 0.845-0.666 1.255-0.171 0.307-0.298 0.632-0.503 0.93-0.938 1.399-2.142 2.603-3.55 3.533-0.273 0.188-0.58 0.315-0.887 0.486-0.426 0.239-0.853 0.504-1.297 0.683-0.409 0.179-0.837 0.264-1.246 0.384-0.375 0.12-0.743 0.264-1.144 0.341-0.81 0.171-1.647 0.256-2.483 0.256h-90.88c-7.040 0-12.749-5.701-12.749-12.74s5.709-12.749 12.749-12.749h60.109l-109.090-109.099c-20.54 16.521-45.883 25.506-72.601 25.506-31.018 0-60.185-12.083-82.108-34.006-21.939-21.939-34.014-51.106-34.014-82.125s12.075-60.177 34.014-82.099c21.93-21.939 51.097-34.022 82.107-34.022s60.177 12.083 82.116 34.022c42.214 42.214 45.039 109.142 8.499 154.701l109.099 109.098v-60.117c0-7.032 5.7-12.74 12.74-12.74s12.757 5.709 12.757 12.74v90.88c0 0.837-0.094 1.672-0.256 2.509zM265.549 105.378c-17.126-17.118-39.894-26.547-64.094-26.547-24.218 0-46.968 9.43-64.085 26.547s-26.547 39.885-26.547 64.085c0 24.217 9.43 46.967 26.547 64.085s39.868 26.547 64.085 26.547c24.201 0 46.968-9.429 64.094-26.547 35.328-35.336 35.328-92.843 0-128.171z" />
<glyph unicode="&#xe631;" d="M267.187 176.879c-6.613 6.417-15.317 9.942-24.559 9.942-9.446 0-18.313-3.678-24.986-10.36-6.631-6.647-10.282-15.514-10.282-24.96 0-9.147 3.422-17.724 9.66-24.286 0.196-0.239 0.41-0.478 0.631-0.691 6.656-6.656 15.522-10.317 24.977-10.317 9.421 0 18.295 3.67 24.985 10.334 6.664 6.656 10.334 15.522 10.334 24.96 0 9.421-3.67 18.296-10.325 24.969-0.137 0.137-0.29 0.273-0.435 0.409zM254.166 140.015c-6.033-6.007-16.427-6.17-22.579-0.495-0.154 0.171-0.307 0.333-0.47 0.495-3.047 3.038-4.736 7.117-4.736 11.486 0 4.377 1.681 8.465 4.727 11.529 6.119 6.135 16.87 6.135 23.023-0.026 0.102-0.094 0.188-0.179 0.281-0.264 2.893-3.038 4.48-7.014 4.48-11.23 0.017-4.361-1.673-8.44-4.727-11.495zM396.45 177.127c-6.57 6.255-15.138 9.694-24.26 9.694-9.447 0-18.313-3.678-24.994-10.36-6.647-6.682-10.317-15.539-10.317-24.96 0-9.233 3.515-17.937 9.933-24.559 0.137-0.145 0.256-0.281 0.401-0.418 6.647-6.656 15.522-10.317 24.977-10.317 9.421 0 18.287 3.67 24.926 10.317 6.673 6.647 10.351 15.514 10.351 24.977 0 9.438-3.652 18.313-10.283 24.96-0.231 0.239-0.478 0.461-0.734 0.666zM383.667 139.99c-6.058-6.058-16.589-6.118-22.707-0.281-0.094 0.103-0.179 0.188-0.273 0.281-3.072 3.080-4.77 7.168-4.77 11.512s1.698 8.44 4.77 11.529c6.118 6.118 16.862 6.135 22.971-0.009 0.162-0.171 0.333-0.325 0.512-0.478 2.757-3.012 4.267-6.904 4.267-11.042 0-4.361-1.69-8.431-4.77-11.512zM376.918 265.847c-0.563 0.128-1.152 0.137-1.733 0.188v26.803c0 5.257-4.258 9.523-9.514 9.523h-42.053v54.212c1.442-3.413 4.822-5.828 8.772-5.828h24.252c5.248 0 9.514 4.267 9.514 9.523v58.206c0 5.257-4.267 9.514-9.514 9.514h-24.252c-5.017 0-9.13-3.882-9.489-8.806-7.877-0.41-15.087-1.733-21.521-3.968-22.161-7.654-34.841-24.098-36.711-47.769l-0.086-1.579c-0.009-0.171-0.017-0.333-0.017-0.512v-63.002h-37.342c-5.256 0-9.514-4.266-9.514-9.523v-28.433c-28.996-7.245-54.715-18.117-75.495-31.992l-16.572 35.081c-2.355 4.992-7.39 8.183-12.911 8.183h-49.306c-4.105 0-8.005-1.766-10.718-4.847-2.705-3.081-3.959-7.185-3.439-11.247l10.957-85.128h-18.757c4.54 11.392 8.798 25.916 7.97 39.117-1.357 22.349-14.233 34.406-25.66 34.406-5.709 0-10.957-2.791-14.754-7.868-9.438-12.603-9.319-37.709 0.341-70.69 0.111-0.392 0.341-0.717 0.512-1.075-1.621-2.313-2.594-5.128-2.594-8.175v-14.106c0-3.49 1.306-6.656 3.387-9.139-0.034-0.060-0.077-0.103-0.111-0.171-5.29-11.93-11.409-29.44-10.47-45.031 1.383-22.341 14.259-34.398 25.685-34.398 5.718 0 10.965 2.799 14.762 7.885 9.037 12.058 9.276 35.618 0.785 66.586h19.397l-11.46-89.071c-0.52-4.070 0.734-8.166 3.439-11.247 2.714-3.080 6.614-4.847 10.718-4.847h49.305c5.521 0 10.547 3.183 12.911 8.183l13.713 29.022c39.774-27.665 98.296-43.818 160.845-43.818 118.767 0 211.798 55.842 211.798 127.13 0.009 53.282-53.017 99.882-135.074 118.707zM20.446 231.552c1.067 1.425 2.193 2.159 3.328 2.159 4.139 0 10.59-7.483 11.409-21.009 0.563-8.986-2.065-20.975-7.441-34.134h-6.119c-7.902 29.509-5.913 46.669-1.177 52.983zM29.125 73.762c-1.067-1.433-2.193-2.151-3.337-2.151-4.147 0-10.607 7.475-11.434 20.983-0.537 8.969 2.099 20.966 7.466 34.133h6.119c7.902-29.5 5.914-46.643 1.186-52.966zM274.091 283.323c5.248 0 9.514 4.267 9.514 9.514v72.286l0.060 1.066c1.255 15.958 8.858 25.822 23.936 31.036 6.801 2.355 15.044 3.37 24.406 2.978 2.611-0.094 5.111 0.862 6.971 2.654 1.681 1.613 2.705 3.789 2.901 6.11h5.231v-39.168h-5.205c-0.017 4.975-3.865 9.105-8.841 9.464-7.748 0.555-13.849 0-18.722-1.681-5.265-1.817-8.781-6.058-9.651-11.631-0.077-0.487-0.12-0.973-0.12-1.468v-71.637c0-5.248 4.267-9.514 9.523-9.514h42.053v-17.118h-119.407v17.118h37.351zM300.202 48.555c-64.034 0-122.599 18.014-156.655 48.188-2.637 2.338-6.016 3.592-9.472 3.592-0.956 0-1.92-0.094-2.867-0.29-4.403-0.896-8.124-3.815-10.043-7.885l-17.477-36.992h-24.030l11.469 89.071c0.418 3.277-0.307 6.57-2.022 9.336 1.34 2.568 1.877 5.504 1.502 8.423l-10.948 85.129h24.022l20.165-42.684c1.894-4.010 5.529-6.912 9.856-7.851 4.318-0.947 8.84 0.171 12.237 3.012 20.233 16.981 48.674 30.123 82.329 38.059h143.813c66.68-15.701 111.36-51.96 111.36-90.513 0-53.445-83.917-98.594-183.237-98.594z" />
<glyph unicode="&#xe632;" d="M504.601 227.43c-11.673 21.691-76.63 32.563-117.922 37.368-23.731 29.056-61.286 73.984-70.954 79.548-13.688 7.885-50.193 9.541-78.404 9.541-77.773 0-87.347-9.575-90.948-13.175l-2.406-2.389c-35.789-35.379-58.035-60.766-67.686-77.269-5.359-0.375-14.754-0.197-19.814-0.111-3.029 0.060-5.846 0.111-8.158 0.111-16.197 0-20.446-19.286-23.799-62.507-0.529-6.801-0.956-13.662-1.314-20.156h-14.592c-4.984 0-8.601-4.608-8.601-10.966v-16.546c0-6.358 3.618-10.966 8.593-10.966h13.065c0.247-2.995 1.195-5.922 2.961-8.474 3.217-4.599 8.482-7.339 14.089-7.339h35.157c7.117 0 12.894 5.769 12.894 12.894 0 0.325-0.008 0.64-0.025 0.947-0.264 6.895-5.939 12.39-12.894 12.39-1.169 0-2.313-0.154-3.379-0.452h-22.69c1.152 38.332 4.156 72.55 7.416 85.308 0.264-0.008 0.529-0.008 0.81-0.017 23.978-0.435 35.993-0.649 40.832 9.668 4.249 9.054 19.021 29.432 65.263 75.161l1.929 1.911c5.095 2.466 28.826 6.203 73.302 6.203 39.62 0 60.553-3.524 65.297-5.973 6.793-5.154 39.45-43.367 67.387-77.688 0.162-0.188 0.358-0.341 0.529-0.52 0.392-0.435 0.785-0.879 1.246-1.246 0.29-0.239 0.615-0.435 0.921-0.64 0.384-0.264 0.751-0.546 1.161-0.776 0.358-0.188 0.743-0.325 1.118-0.487 0.401-0.171 0.785-0.367 1.212-0.495 0.486-0.154 0.981-0.222 1.485-0.315 0.315-0.060 0.615-0.171 0.938-0.196 48.802-5.342 97.152-16.956 103.279-24.542 5.495-10.206 4.906-42.137 2.611-65.339h-57.925c-1.084 0.298-2.219 0.452-3.379 0.452-6.963 0-12.638-5.512-12.894-12.425-0.017-0.298-0.026-0.674-0.026-0.913 0-7.125 5.769-12.894 12.894-12.894h69.052c9.122 0 16.606 7.142 17.161 16.137 1.433 11.861 7.126 65.033-4.787 87.177zM12.902 165.504h9.659c-0.205-4.796-0.367-9.122-0.495-12.697h-9.165v12.697zM291.243 149.863l-0.077 0.009c-0.785 0.111-1.604 0.179-2.474 0.214-0.64 0.026-1.272 0.060-1.758 0.086-1.767 0.281-3.67 0.171-5.376-0.298h-66.125c-1.698 0.469-3.609 0.572-5.385 0.298-0.478-0.026-1.109-0.060-1.75-0.086-0.87-0.043-1.69-0.111-2.466-0.214l-0.077-0.009c-11.153-1.442-12.894-8.567-12.894-12.885 0-7.125 5.768-12.894 12.894-12.894h85.487c7.117 0 12.894 5.769 12.894 12.894 0 4.327-1.75 11.452-12.894 12.885zM199.279 139.195c0.239 1.775 0.837 3.379 1.673 4.796-0.853-1.442-1.434-3.055-1.673-4.796zM296.038 144c0.845-1.416 1.433-3.021 1.673-4.796-0.231 1.733-0.81 3.353-1.673 4.796zM132.565 242.185h85.325c4.514 0 8.192 3.669 8.192 8.158l0.196 55.646c0 4.506-3.678 8.184-8.201 8.184l-39.33-0.069c-2.287 0-4.48-0.964-6.238-2.893l-45.986-55.322c-2.193-2.398-2.757-5.871-1.459-8.806 1.305-2.987 4.241-4.898 7.501-4.898zM180.958 301.218l32.418 0.051-0.171-46.191h-70.597l38.349 46.139zM244.727 242.185h85.709c3.106 0 5.99 1.8 7.39 4.65 1.349 2.833 0.981 6.127-0.862 8.465l-41.233 55.099c-1.536 1.971-3.942 3.149-6.4 3.149l-45.269 0.418c-4.506 0-8.184-3.669-8.184-8.26l0.649-55.339c0.008-4.514 3.678-8.184 8.201-8.184zM286.908 300.672l34.134-45.602h-71.663l-0.537 45.96 38.067-0.358zM139.819 180.762c-23.902 0-43.333-19.43-43.333-43.324 0-23.885 19.43-43.324 43.333-43.324 23.885 0 43.315 19.439 43.315 43.324s-19.43 43.324-43.315 43.324zM139.819 111.3c-14.413 0-26.138 11.725-26.138 26.129s11.725 26.129 26.138 26.129c14.405 0 26.129-11.725 26.129-26.129s-11.733-26.129-26.129-26.129zM359.057 180.762c-23.894 0-43.332-19.43-43.332-43.324 0-23.885 19.439-43.324 43.332-43.324 23.885 0 43.315 19.439 43.315 43.324s-19.43 43.324-43.315 43.324zM359.057 111.3c-14.413 0-26.137 11.725-26.137 26.129s11.725 26.129 26.137 26.129c14.404 0 26.129-11.725 26.129-26.129s-11.725-26.129-26.129-26.129z" />
</font>
</defs>
</svg>
