<?xml version="1.0" encoding="utf-8"?>
<!-- Generator: Adobe Illustrator 16.0.0, SVG Export Plug-In . SVG Version: 6.00 Build 0)  -->
<!DOCTYPE svg PUBLIC "-//W3C//DTD SVG 1.1//EN" "http://www.w3.org/Graphics/SVG/1.1/DTD/svg11.dtd">
<svg version="1.1" id="Layer_1" xmlns="http://www.w3.org/2000/svg" xmlns:xlink="http://www.w3.org/1999/xlink" x="0px" y="0px"
	 width="30px" height="40px" viewBox="0 0 30 40" enable-background="new 0 0 30 40" xml:space="preserve">
<path fill="#FFFFFF" d="M29.974,18.987c-0.116-2.136-0.603-4.264-1.29-6.282c-0.063-0.188-0.135-0.384-0.212-0.586
	c-1.034-2.845-2.435-5.447-3.715-7.501c0,0-0.003-0.004-0.003-0.005c-0.598-0.958-1.165-1.794-1.657-2.485
	c-0.001-0.001-0.005-0.008-0.005-0.008c0,0.001,0,0.002,0,0.002C22.139,0.783,21.477,0,21.477,0s-9.489,6.298-3.062,16.205
	c1.05,1.618,1.977,3.096,2.726,4.517c-1.041,1.042-4.635,3.943-6.141,5.94c-1.506-1.997-5.099-4.897-6.141-5.94
	c0.749-1.421,1.676-2.899,2.726-4.517C18.012,6.298,8.523,0,8.523,0S7.861,0.782,6.909,2.119c0,0,0,0,0,0L6.908,2.12
	C6.416,2.812,5.846,3.651,5.247,4.612c0,0.001-0.003,0.005-0.003,0.005c-1.281,2.054-2.681,4.657-3.715,7.501
	c-0.077,0.202-0.148,0.398-0.212,0.586c-0.687,2.018-1.173,4.146-1.29,6.282C0.01,19.319,0.001,19.657,0,20
	c0.001,0.206,0.007,0.41,0.017,0.612c0.006,0.117,0.014,0.234,0.024,0.351c0,0.006,0.001,0.012,0.001,0.017
	c0.373,4.042,3.091,8.057,6.11,11.349c0.076,0.082,0.18,0.192,0.298,0.315c0.894,0.955,1.806,1.846,2.688,2.654
	c0.771,0.727,1.609,1.489,2.443,2.2c0.03,0.026,0.051,0.046,0.051,0.046c-0.001-0.002-0.002-0.004-0.003-0.006
	c1.227,1.044,2.429,1.963,3.345,2.442c0.004,0.005,0.01,0.012,0.013,0.015C14.991,39.998,14.993,40,14.994,40
	c0.001,0,0.003-0.003,0.006-0.004C15.003,39.997,15.005,40,15.006,40c0,0,0.003-0.002,0.006-0.004
	c0.002-0.003,0.009-0.01,0.013-0.015c0.917-0.479,2.119-1.398,3.346-2.442c-0.002,0.001-0.002,0.003-0.004,0.006
	c0,0,0.022-0.021,0.054-0.048c0.828-0.707,1.662-1.464,2.429-2.188c0.886-0.811,1.803-1.706,2.7-2.665
	c0.118-0.123,0.222-0.233,0.298-0.315c3.02-3.292,5.737-7.307,6.109-11.349c0.001-0.005,0.001-0.011,0.002-0.017
	c0.01-0.117,0.018-0.234,0.024-0.351C29.994,20.41,29.999,20.206,30,20C29.999,19.657,29.99,19.319,29.974,18.987z M19.2,15.713
	C14.28,8.13,19.361,2.894,21.314,1.277c0.586,0.755,1.57,2.088,2.639,3.802c0.071,0.125,0.61,1.071,1.279,2.337
	c1.113,4.934-0.432,9.257-3.424,12.597C21.039,18.59,20.105,17.109,19.2,15.713z M4.768,7.417C5.437,6.151,5.975,5.205,6.046,5.08
	c1.066-1.71,2.05-3.042,2.635-3.798c0.765,0.641,2.023,1.854,2.966,3.546c1.907,3.417,1.621,7.08-0.848,10.886
	c-0.905,1.396-1.838,2.875-2.608,4.3C5.199,16.675,3.655,12.352,4.768,7.417z M7.468,32.37c-0.209-0.218-0.425-0.437-0.624-0.653
	c-3.598-3.923-5.574-7.562-5.875-10.819l0-0.009l-0.001-0.013l0-0.004c-0.009-0.103-0.016-0.206-0.021-0.302
	c-0.009-0.189-0.015-0.379-0.016-0.567c0.001-0.316,0.009-0.643,0.025-0.966c0.103-1.886,0.521-3.919,1.243-6.04
	c0.04-0.117,0.084-0.234,0.125-0.351c0.306-0.831,0.729-1.784,1.181-2.729c-0.187,3.983,1.237,7.757,4.234,10.97
	C6.1,24.254,5.658,27.714,7.981,32.89C7.794,32.703,7.622,32.528,7.468,32.37z M9.998,34.843c-3.263-5.854-3.281-9.529-1.567-13.253
	c0.325,0.306,0.762,0.694,1.293,1.164c1.491,1.321,3.534,3.13,4.534,4.46c0.063,0.084,0.121,0.167,0.181,0.251
	c-2.911,4.453-1.85,8.363-0.72,10.587C12.54,37.156,11.198,35.967,9.998,34.843z M15,38.449c-1.082-1.715-2.771-5.576,0-10.139
	C17.771,32.873,16.082,36.734,15,38.449z M20.002,34.843c-1.199,1.124-2.542,2.313-3.721,3.209c1.131-2.224,2.191-6.134-0.72-10.587
	c0.06-0.084,0.117-0.167,0.181-0.251c1-1.329,3.042-3.139,4.533-4.459c0.531-0.47,0.969-0.858,1.294-1.165
	C23.283,25.313,23.266,28.988,20.002,34.843z M29.055,20.563c-0.006,0.099-0.012,0.198-0.021,0.297l-0.001,0.006l-0.002,0.017
	l-0.001,0.015c-0.3,3.257-2.276,6.896-5.874,10.819c-0.201,0.219-0.42,0.439-0.631,0.661c-0.152,0.156-0.322,0.327-0.506,0.512
	c2.323-5.176,1.881-8.636,0.242-12.004c2.996-3.212,4.421-6.986,4.233-10.97c0.452,0.943,0.875,1.896,1.181,2.726
	c0.041,0.118,0.086,0.236,0.125,0.353c0.723,2.121,1.141,4.153,1.243,6.037c0.016,0.323,0.024,0.65,0.025,0.965
	C29.068,20.188,29.063,20.378,29.055,20.563z"/>
</svg>
