<svg version="1.1" xmlns="http://www.w3.org/2000/svg" xmlns:xlink="http://www.w3.org/1999/xlink" x="0px" y="0px"
	 width="100" height="100" xml:space="preserve">
<circle fill="@color1" cx="50" cy="50" r="37.5"/>
<path fill="@color1" d="M90,50h-0.5c0,10.9-4.4,20.8-11.6,27.9c-7.1,7.1-17,11.6-27.9,11.6c-10.9,0-20.8-4.4-27.9-11.6
	c-7.1-7.1-11.6-17-11.6-27.9c0-10.9,4.4-20.8,11.6-27.9c7.1-7.1,17-11.6,27.9-11.6c10.9,0,20.8,4.4,27.9,11.6
	c7.1,7.1,11.6,17,11.6,27.9L90,50h0.5C90.5,27.6,72.4,9.5,50,9.5C27.6,9.5,9.5,27.6,9.5,50c0,22.4,18.1,40.5,40.5,40.5
	c22.4,0,40.5-18.1,40.5-40.5H90z"/>
<path fill="@color1" d="M94.2,58.2c-0.9-1.4-0.6-3.6,0.6-4.7c1.3-1.2,1.3-3.1,0.1-4.3s-1.3-3.4-0.3-4.8c1-1.4,0.7-3.3-0.7-4.3
	c-1.4-1-2-3-1.3-4.6c0.7-1.6,0-3.4-1.6-4c-1.6-0.7-2.6-2.6-2.2-4.2c0.4-1.7-0.7-3.3-2.4-3.6s-3-2-3-3.7c0-1.7-1.3-3.1-3.1-3.1
	c-1.7,0-3.4-1.3-3.7-3s-1.9-2.8-3.6-2.4c-1.7,0.4-3.6-0.6-4.2-2.2s-2.5-2.3-4-1.6s-3.6,0.1-4.6-1.3S57.4,4.4,56,5.4S52.4,6.2,51.2,5
	C50,3.8,48,3.9,46.9,5.1s-3.3,1.5-4.7,0.6s-3.3-0.5-4.2,1S35,8.8,33.4,8.2c-1.6-0.6-3.4,0.2-4,1.8s-2.4,2.7-4.1,2.4
	c-1.7-0.3-3.3,0.9-3.5,2.6c-0.2,1.7-1.8,3.1-3.6,3.2c-1.7,0.1-3,1.5-2.9,3.2c0.1,1.7-1.2,3.4-2.8,3.8c-1.7,0.4-2.7,2.1-2.2,3.7
	c0.4,1.7-0.5,3.6-2,4.3s-2.2,2.6-1.4,4.1C7.6,38.9,7.1,41,5.7,42s-1.6,3-0.6,4.3c1.1,1.3,1,3.5-0.1,4.8s-1,3.2,0.3,4.3
	c1.3,1.1,1.7,3.2,0.8,4.7s-0.3,3.4,1.2,4.2c1.5,0.8,2.3,2.8,1.8,4.4c-0.5,1.6,0.4,3.4,2,3.9s2.8,2.3,2.6,4c-0.2,1.7,1,3.2,2.7,3.4
	s3.2,1.7,3.4,3.4s1.7,2.9,3.4,2.8c1.7-0.2,3.5,1,4,2.6s2.2,2.6,3.8,2c1.6-0.5,3.6,0.3,4.4,1.8c0.8,1.5,2.7,2.1,4.2,1.2
	c1.5-0.8,3.6-0.5,4.7,0.9c1.1,1.3,3,1.5,4.3,0.3c1.3-1.1,3.4-1.2,4.8-0.1c1.3,1.1,3.3,0.8,4.3-0.5c1-1.4,3.1-1.8,4.7-1.1
	s3.4,0.2,4.1-1.4c0.7-1.5,2.7-2.4,4.3-2c1.7,0.5,3.3-0.5,3.7-2.2s2.1-2.9,3.9-2.8c1.7,0.1,3.2-1.2,3.2-2.9c0.1-1.7,1.5-3.3,3.2-3.5
	c1.7-0.2,2.9-1.8,2.6-3.5c-0.3-1.7,0.8-3.5,2.4-4.1s2.4-2.3,1.8-3.9c-0.6-1.6,0.1-3.6,1.6-4.5S95.1,59.7,94.2,58.2z M90.4,66.4
	c0.6,1.6-0.2,3.3-1.8,3.8c-1.6,0.5-2.6,2.3-2.4,4c0.3,1.6-0.9,3.2-2.5,3.4c-1.6,0.2-3,1.8-3.1,3.4c-0.1,1.7-1.5,2.9-3.1,2.8
	s-3.3,1.1-3.7,2.7s-2,2.6-3.6,2.1s-3.5,0.4-4.2,1.9c-0.7,1.5-2.5,2.1-4,1.3c-1.5-0.8-3.5-0.3-4.5,1c-1,1.3-2.9,1.6-4.2,0.5
	s-3.4-1-4.6,0.1s-3.1,0.9-4.2-0.3c-1.1-1.3-3.1-1.7-4.6-0.8c-1.4,0.8-3.3,0.3-4-1.2c-0.8-1.5-2.7-2.2-4.3-1.7
	c-1.6,0.5-3.3-0.4-3.7-2S25.6,84.8,24,85s-3.1-1-3.3-2.7c-0.1-1.7-1.6-3.1-3.3-3.3c-1.7-0.1-2.8-1.6-2.6-3.3s-0.9-3.4-2.5-3.9
	s-2.5-2.2-1.9-3.7s-0.2-3.5-1.7-4.3s-2-2.6-1.1-4.1s0.5-3.5-0.8-4.6c-1.3-1.1-1.4-3-0.3-4.2s1.2-3.3,0.1-4.6c-1-1.3-0.8-3.2,0.5-4.2
	c1.3-1,1.8-3,1.1-4.5s-0.1-3.3,1.4-4c1.5-0.7,2.4-2.6,1.9-4.2C11,28,12,26.3,13.6,25.9c1.6-0.4,2.9-2.1,2.8-3.7
	c-0.1-1.7,1.2-3.1,2.8-3.1c1.7-0.1,3.2-1.4,3.4-3.1c0.2-1.6,1.8-2.8,3.4-2.5s3.4-0.8,4-2.3s2.3-2.3,3.8-1.7s3.5-0.1,4.4-1.5
	s2.7-1.8,4.1-0.9s3.5,0.7,4.6-0.6s3-1.3,4.2-0.1s3.3,1.3,4.6,0.4s3.2-0.6,4.1,0.8c0.9,1.4,2.9,2,4.4,1.3c1.5-0.7,3.3,0,3.9,1.6
	c0.6,1.5,2.5,2.5,4.1,2.2c1.6-0.4,3.2,0.7,3.5,2.3s1.9,3,3.6,2.9c1.7,0,3,1.3,3,3c0,1.7,1.3,3.3,2.9,3.6c1.6,0.3,2.7,1.9,2.3,3.5
	c-0.4,1.6,0.6,3.5,2.1,4.1c1.5,0.6,2.2,2.4,1.5,3.9c-0.7,1.5-0.1,3.5,1.3,4.5c1.4,0.9,1.7,2.8,0.7,4.1c-1,1.3-0.8,3.4,0.3,4.6
	c1.2,1.2,1.1,3.1-0.1,4.2c-1.2,1.1-1.5,3.2-0.6,4.6s0.5,3.2-1,4.1C90.5,62.9,89.8,64.9,90.4,66.4z"/>
</svg>
