<svg version="1.1" xmlns="http://www.w3.org/2000/svg" xmlns:xlink="http://www.w3.org/1999/xlink" x="0px" y="0px"
	 width="100" height="100" xml:space="preserve">
<path fill="@color1" d="M78.5,21.5c7.3,7.3,11.8,17.3,11.8,28.5c0,11.1-4.5,21.2-11.8,28.5C71.2,85.7,61.1,90.2,50,90.3
	c-11.1,0-21.2-4.5-28.5-11.8C14.3,71.2,9.8,61.1,9.8,50c0-11.1,4.5-21.2,11.8-28.5C28.8,14.3,38.9,9.8,50,9.8
	C61.1,9.8,71.2,14.3,78.5,21.5z M94.5,53.8l-0.5,0.9c-0.6,0.9-0.8,2.6-0.5,3.6l0.2,1c0.3,1.1-0.1,2.6-0.9,3.4l-0.7,0.7
	c-0.7,0.8-1.3,2.4-1.3,3.5l0,1c0.1,1.1-0.6,2.5-1.5,3.2l-0.8,0.6c-0.9,0.6-1.8,2.1-1.9,3.1l-0.2,1c-0.2,1.1-1.1,2.3-2.1,2.8L83.4,79
	c-1,0.4-2.1,1.7-2.5,2.7l-0.3,0.9c-0.4,1-1.6,2.1-2.7,2.3l-1,0.2c-1.1,0.2-2.4,1.2-3,2.1l-0.5,0.8c-0.6,0.9-2,1.7-3.1,1.7l-1,0
	c-1.1,0-2.6,0.7-3.4,1.5L65.3,92c-0.8,0.8-2.3,1.3-3.3,1.1l-1-0.2c-1.1-0.2-2.7,0.1-3.6,0.8l-0.8,0.6c-0.9,0.6-2.5,0.8-3.5,0.4
	l-0.9-0.4c-1-0.4-2.7-0.4-3.7,0l-0.9,0.4c-1,0.4-2.6,0.3-3.5-0.3l-0.8-0.6c-0.9-0.6-2.5-0.9-3.6-0.7l-1,0.2c-1.1,0.2-2.6-0.2-3.4-1
	l-0.7-0.7c-0.8-0.8-2.3-1.4-3.4-1.4l-1,0c-1.1,0-2.5-0.8-3.1-1.7l-0.5-0.8c-0.6-0.9-2-1.9-3-2.1l-1-0.2C21.4,85,20.2,84,19.8,83
	l-0.4-0.9c-0.4-1-1.5-2.2-2.6-2.7L16,79c-1-0.4-2-1.7-2.2-2.8l-0.2-1c-0.2-1.1-1.1-2.5-2-3.1l-0.8-0.6c-0.9-0.6-1.6-2-1.6-3.1l0-1
	c0-1.1-0.5-2.7-1.3-3.5l-0.7-0.7c-0.8-0.8-1.2-2.3-0.9-3.4l0.2-1c0.3-1.1,0-2.7-0.6-3.6l-0.5-0.8c-0.6-0.9-0.7-2.5-0.2-3.5L5.8,50
	c0.5-1,0.5-2.7,0.2-3.7l-0.3-0.9c-0.4-1-0.2-2.6,0.5-3.5l0.6-0.8c0.7-0.9,1.1-2.5,0.9-3.6l-0.1-1c-0.2-1.1,0.4-2.6,1.2-3.3l0.7-0.7
	c0.8-0.7,1.5-2.2,1.6-3.3l0.1-1c0.1-1.1,0.9-2.4,1.8-3l0.9-0.5c1-0.5,2-1.9,2.2-2.9l0.3-1c0.3-1.1,1.4-2.2,2.4-2.6l0.9-0.3
	c1-0.3,2.3-1.4,2.8-2.4l0.4-0.9c0.5-1,1.8-1.9,2.9-2l1-0.1c1.1-0.1,2.5-0.9,3.2-1.8l0.6-0.8c0.7-0.9,2.1-1.5,3.2-1.4l1,0.1
	c1.1,0.1,2.7-0.4,3.5-1.1L39,6.8c0.8-0.7,2.4-1,3.4-0.7l1,0.3c1.1,0.3,2.7,0.1,3.7-0.4L48,5.5c1-0.5,2.5-0.5,3.5,0L52.3,6
	c1,0.5,2.6,0.7,3.7,0.4L57,6c1.1-0.3,2.6,0,3.4,0.7l0.8,0.6C62,8,63.6,8.5,64.7,8.4l1-0.1c1.1-0.1,2.6,0.5,3.2,1.4l0.6,0.8
	c0.7,0.9,2.1,1.7,3.2,1.8l1,0.1c1.1,0.1,2.4,1,2.9,2l0.5,0.9c0.5,1,1.8,2.1,2.8,2.4l1,0.3c1,0.3,2.1,1.5,2.4,2.5l0.3,1
	c0.3,1.1,1.3,2.4,2.3,2.9l0.9,0.5c1,0.5,1.8,1.9,1.9,3l0.1,1c0.1,1.1,0.8,2.6,1.6,3.3l0.8,0.7c0.8,0.7,1.4,2.2,1.2,3.3l-0.1,1
	c-0.2,1.1,0.3,2.7,0.9,3.6l0.6,0.8c0.7,0.9,0.9,2.4,0.6,3.5L94,45.7c-0.4,1-0.3,2.7,0.2,3.7l0.4,0.9C95.1,51.3,95,52.9,94.5,53.8z
	 M91.3,50C91.2,27.2,72.8,8.8,50,8.8C27.2,8.8,8.8,27.2,8.8,50c0,22.8,18.5,41.2,41.3,41.3C72.8,91.2,91.2,72.8,91.3,50z"/>
</svg>
