<svg version="1.1" xmlns="http://www.w3.org/2000/svg" xmlns:xlink="http://www.w3.org/1999/xlink" x="0px" y="0px"
	 width="100" height="100" xml:space="preserve">
<circle fill="@color1" cx="50" cy="50" r="37.5"/>
<path fill="@color1" d="M90,50h-0.5c0,10.9-4.4,20.8-11.6,27.9c-7.1,7.1-17,11.6-27.9,11.6c-10.9,0-20.8-4.4-27.9-11.6
	c-7.1-7.1-11.6-17-11.6-27.9c0-10.9,4.4-20.8,11.6-27.9c7.1-7.1,17-11.6,27.9-11.6c10.9,0,20.8,4.4,27.9,11.6
	c7.1,7.1,11.6,17,11.6,27.9L90,50h0.5C90.5,27.6,72.4,9.5,50,9.5C27.6,9.5,9.5,27.6,9.5,50c0,22.4,18.1,40.5,40.5,40.5
	c22.4,0,40.5-18.1,40.5-40.5H90z"/>
</svg>
